<?xml version="1.0" standalone="no"?><!DOCTYPE svg PUBLIC "-//W3C//DTD SVG 1.1//EN" "http://www.w3.org/Graphics/SVG/1.1/DTD/svg11.dtd"><svg height="1024" node-id="1" sillyvg="true" template-height="1024" template-width="1024" version="1.1" viewBox="0 0 1024 1024" width="1024" xmlns="http://www.w3.org/2000/svg" xmlns:xlink="http://www.w3.org/1999/xlink"><defs node-id="86"><linearGradient gradientUnits="userSpaceOnUse" id="SVGID_1_" node-id="4" spreadMethod="pad" x1="511.4615" x2="511.4615" y1="492.6213" y2="844.7413"><stop offset="0.0000004528621" stop-color="#d0ddf8"></stop><stop offset="1" stop-color="#ffffff"></stop></linearGradient><linearGradient gradientUnits="userSpaceOnUse" id="SVGID_2_" node-id="8" spreadMethod="pad" x1="700.8628" x2="525.1198" y1="794.3509" y2="489.955"><stop offset="0" stop-color="#ffffff" stop-opacity="0"></stop><stop offset="1" stop-color="#9db9e0"></stop></linearGradient><linearGradient gradientUnits="userSpaceOnUse" id="SVGID_3_" node-id="12" spreadMethod="pad" x1="385.6444" x2="337.3146" y1="721.5754" y2="637.8658"><stop offset="0" stop-color="#ffffff" stop-opacity="0"></stop><stop offset="1" stop-color="#9db9e0"></stop></linearGradient><linearGradient gradientUnits="userSpaceOnUse" id="SVGID_4_" node-id="16" spreadMethod="pad" x1="511.4615" x2="511.4615" y1="178.0279" y2="561.4163"><stop offset="0.0000004528621" stop-color="#d0ddf8"></stop><stop offset="1" stop-color="#ffffff" stop-opacity="0"></stop></linearGradient><linearGradient gradientUnits="userSpaceOnUse" id="SVGID_5_" node-id="67" spreadMethod="pad" x1="408.1259" x2="559.1891" y1="340.4774" y2="602.1266"><stop offset="0.0000004475343" stop-color="#dfe7f8"></stop><stop offset="1" stop-color="#4d82f8"></stop></linearGradient><linearGradient gradientUnits="userSpaceOnUse" id="SVGID_6_" node-id="72" spreadMethod="pad" x1="566.1598" x2="620.6395" y1="511.4275" y2="605.7891"><stop offset="0.0000004475343" stop-color="#dfe7f8"></stop><stop offset="1" stop-color="#7aa1f8"></stop></linearGradient><linearGradient gradientUnits="userSpaceOnUse" id="SVGID_7_" node-id="81" spreadMethod="pad" x1="428.6072" x2="538.7077" y1="339.4731" y2="339.4731"><stop offset="0.0000004475343" stop-color="#cedbf8"></stop><stop offset="1" stop-color="#92b2f8"></stop></linearGradient></defs><path d="M 882.44 668.68 C 882.44 715.37 843.35 760.16 773.78 793.17 C 704.21 826.19 609.85 844.74 511.46 844.74 C 413.07 844.74 318.71 826.19 249.14 793.17 C 179.57 760.16 140.48 715.37 140.48 668.68 C 140.48 621.99 179.57 577.20 249.14 544.19 C 318.71 511.17 413.07 492.62 511.46 492.62 C 609.85 492.62 704.21 511.17 773.78 544.19 C 843.35 577.20 882.44 621.99 882.44 668.68 Z" fill="url(#SVGID_1_)" fill-rule="nonzero" node-id="131" stroke="none" target-height="352.12" target-width="741.96" target-x="140.48" target-y="492.62"></path><path d="M 851.14 707.59 L 587.61 803.13 L 374.84 576.72 L 578.83 552.04 Z" fill="url(#SVGID_2_)" fill-rule="nonzero" node-id="133" stroke="none" target-height="251.09003" target-width="476.30002" target-x="374.84" target-y="552.04"></path><path d="M 406.46 709.55 L 358.66 722.92 L 333.35 640.15 L 347.91 636.74 Z" fill="url(#SVGID_3_)" fill-rule="nonzero" node-id="135" stroke="none" target-height="86.17999" target-width="73.109985" target-x="333.35" target-y="636.74"></path><path d="M 727.99 228.76 L 727.99 561.42 L 294.94 561.42 C 295.66 395.99 296.33 370.55 297.06 205.06 L 394.05 205.06 C 394.23 234.57 394.23 247.39 394.05 247.87 L 394.05 247.93 C 394.05 247.93 394.17 247.87 394.23 247.81 L 394.23 247.63 C 394.23 238.92 401.24 231.91 409.95 231.91 C 418.66 231.91 425.67 238.92 425.67 247.63 L 425.67 256.94 L 494.96 256.94 L 494.96 178.03 L 557.12 178.03 L 557.12 291.77 C 557.06 292.01 557.06 292.19 557.06 292.44 L 557.06 330.71 C 557.06 336.33 561.59 340.87 567.22 340.87 C 572.78 340.87 577.32 336.34 577.32 330.71 L 577.32 300.90 C 596.85 300.84 611.00 300.78 620.37 300.78 C 629.74 300.78 634.34 300.84 634.76 300.90 C 636.27 300.72 634.76 277.80 634.76 277.80 L 664.33 277.80 L 664.33 304.95 C 664.33 309.06 667.66 312.39 671.77 312.39 C 675.88 312.39 679.21 309.06 679.21 304.95 L 679.21 228.76 L 727.99 228.76 Z" fill="url(#SVGID_4_)" fill-rule="nonzero" node-id="137" stroke="none" target-height="383.38998" target-width="433.05" target-x="294.94" target-y="178.03"></path><g node-id="259"><g node-id="262"><path d="M 326.05 211.44 C 319.63 211.44 314.40 206.22 314.40 199.79 C 314.40 193.36 319.62 188.14 326.05 188.14 C 332.48 188.14 337.70 193.36 337.70 199.79 C 337.70 206.22 332.47 211.44 326.05 211.44 Z M 326.05 194.62 C 323.20 194.62 320.88 196.94 320.88 199.79 C 320.88 202.64 323.20 204.96 326.05 204.96 C 328.90 204.96 331.22 202.64 331.22 199.79 C 331.22 196.94 328.90 194.62 326.05 194.62 Z" fill="#7aa1f8" fill-opacity="0.6" fill-rule="nonzero" group-id="1,4" node-id="143" stroke="none" target-height="23.300003" target-width="23.300018" target-x="314.4" target-y="188.14"></path></g><g node-id="263"><path d="M 332.35 381.09 C 332.35 385.73 328.58 389.50 323.94 389.50 C 319.30 389.50 315.53 385.73 315.53 381.09 C 315.53 376.45 319.30 372.68 323.94 372.68 C 328.58 372.68 332.35 376.45 332.35 381.09 Z" fill="#7aa1f8" fill-opacity="0.6" fill-rule="nonzero" group-id="1,5" node-id="148" stroke="none" target-height="16.820007" target-width="16.820007" target-x="315.53" target-y="372.68"></path></g><g node-id="264"><path d="M 665.97 486.90 C 665.97 496.63 658.08 504.52 648.35 504.52 C 638.62 504.52 630.73 496.63 630.73 486.90 C 630.73 477.17 638.62 469.28 648.35 469.28 C 658.08 469.28 665.97 477.17 665.97 486.90 Z" fill="#7aa1f8" fill-opacity="0.6" fill-rule="nonzero" group-id="1,6" node-id="153" stroke="none" target-height="35.23999" target-width="35.23999" target-x="630.73" target-y="469.28"></path></g><g node-id="265"><path d="M 639.59 305.28 C 639.59 309.12 636.48 312.23 632.64 312.23 C 628.80 312.23 625.69 309.12 625.69 305.28 C 625.69 301.44 628.80 298.33 632.64 298.33 C 636.48 298.33 639.59 301.44 639.59 305.28 Z" fill="#7aa1f8" fill-opacity="0.6" fill-rule="nonzero" group-id="1,7" node-id="158" stroke="none" target-height="13.900024" target-width="13.900024" target-x="625.69" target-y="298.33"></path></g><g node-id="266"><path d="M 738.80 250.23 C 738.80 253.54 736.12 256.22 732.81 256.22 C 729.50 256.22 726.82 253.54 726.82 250.23 C 726.82 246.92 729.50 244.24 732.81 244.24 C 736.12 244.24 738.80 246.92 738.80 250.23 Z" fill="#7aa1f8" fill-opacity="0.6" fill-rule="nonzero" group-id="1,8" node-id="163" stroke="none" target-height="11.979996" target-width="11.97998" target-x="726.82" target-y="244.24"></path></g><g node-id="267"><path d="M 805.17 386.39 C 805.17 390.96 801.46 394.67 796.89 394.67 C 792.32 394.67 788.61 390.96 788.61 386.39 C 788.61 381.82 792.32 378.11 796.89 378.11 C 801.46 378.11 805.17 381.82 805.17 386.39 Z" fill="#7aa1f8" fill-opacity="0.6" fill-rule="nonzero" group-id="1,9" node-id="168" stroke="none" target-height="16.560028" target-width="16.559998" target-x="788.61" target-y="378.11"></path></g><g node-id="268"><path d="M 686.56 620.91 C 686.56 625.23 683.05 628.74 678.73 628.74 C 674.41 628.74 670.90 625.23 670.90 620.91 C 670.90 616.59 674.41 613.08 678.73 613.08 C 683.05 613.08 686.56 616.59 686.56 620.91 Z" fill="#7aa1f8" fill-opacity="0.6" fill-rule="nonzero" group-id="1,10" node-id="173" stroke="none" target-height="15.659973" target-width="15.659973" target-x="670.9" target-y="613.08"></path></g><g node-id="269"><path d="M 568.56 219.85 C 562.14 219.85 556.91 214.63 556.91 208.20 C 556.91 201.77 562.13 196.55 568.56 196.55 C 574.99 196.55 580.21 201.77 580.21 208.20 C 580.21 214.63 574.98 219.85 568.56 219.85 Z M 568.56 203.03 C 565.71 203.03 563.39 205.35 563.39 208.20 C 563.39 211.05 565.71 213.37 568.56 213.37 C 571.41 213.37 573.73 211.05 573.73 208.20 C 573.73 205.35 571.41 203.03 568.56 203.03 Z" fill="#7aa1f8" fill-opacity="0.6" fill-rule="nonzero" group-id="1,11" node-id="178" stroke="none" target-height="23.300003" target-width="23.300049" target-x="556.91" target-y="196.55"></path></g><g node-id="270"><path d="M 452.40 677.61 C 445.98 677.61 440.75 672.39 440.75 665.96 C 440.75 659.53 445.97 654.31 452.40 654.31 C 458.83 654.31 464.05 659.53 464.05 665.96 C 464.05 672.39 458.82 677.61 452.40 677.61 Z M 452.40 660.80 C 449.55 660.80 447.23 663.12 447.23 665.97 C 447.23 668.82 449.55 671.14 452.40 671.14 C 455.25 671.14 457.57 668.82 457.57 665.97 C 457.57 663.11 455.25 660.80 452.40 660.80 Z" fill="#7aa1f8" fill-opacity="0.6" fill-rule="nonzero" group-id="1,12" node-id="183" stroke="none" target-height="23.299988" target-width="23.299988" target-x="440.75" target-y="654.31"></path></g><g node-id="271"><path d="M 243.79 484.78 L 221.30 484.78 C 219.34 484.78 217.75 483.19 217.75 481.23 L 217.75 481.23 C 217.75 479.27 219.34 477.68 221.30 477.68 L 243.78 477.68 C 245.74 477.68 247.33 479.27 247.33 481.23 L 247.33 481.23 C 247.34 483.19 245.75 484.78 243.79 484.78 Z" fill="#7aa1f8" fill-opacity="0.6" fill-rule="nonzero" group-id="1,13" node-id="188" stroke="none" target-height="7.100006" target-width="29.589996" target-x="217.75" target-y="477.68"></path></g><g node-id="272"><path d="M 228.86 492.33 L 228.86 470.13 C 228.86 468.09 230.51 466.44 232.55 466.44 L 232.55 466.44 C 234.59 466.44 236.24 468.09 236.24 470.13 L 236.24 492.33 C 236.24 494.37 234.59 496.02 232.55 496.02 L 232.55 496.02 C 230.51 496.03 228.86 494.37 228.86 492.33 Z" fill="#7aa1f8" fill-opacity="0.6" fill-rule="nonzero" group-id="1,14" node-id="193" stroke="none" target-height="29.589996" target-width="7.380005" target-x="228.86" target-y="466.44"></path></g><g node-id="273"><path d="M 243.86 333.61 L 229.26 333.61 C 227.99 333.61 226.96 332.58 226.96 331.31 L 226.96 331.31 C 226.96 330.04 227.99 329.01 229.26 329.01 L 243.86 329.01 C 245.13 329.01 246.16 330.04 246.16 331.31 L 246.16 331.31 C 246.17 332.58 245.14 333.61 243.86 333.61 Z" fill="#7aa1f8" fill-opacity="0.6" fill-rule="nonzero" group-id="1,15" node-id="198" stroke="none" target-height="4.5999756" target-width="19.209991" target-x="226.96" target-y="329.01"></path></g><g node-id="274"><path d="M 234.17 338.52 L 234.17 324.10 C 234.17 322.78 235.24 321.70 236.57 321.70 L 236.57 321.70 C 237.89 321.70 238.97 322.77 238.97 324.10 L 238.97 338.51 C 238.97 339.83 237.90 340.91 236.57 340.91 L 236.57 340.91 C 235.24 340.91 234.17 339.84 234.17 338.52 Z" fill="#7aa1f8" fill-opacity="0.6" fill-rule="nonzero" group-id="1,16" node-id="203" stroke="none" target-height="19.209991" target-width="4.800003" target-x="234.17" target-y="321.7"></path></g><g node-id="275"><path d="M 435.00 289.66 C 428.33 279.97 421.66 270.29 414.99 260.60 C 416.12 258.45 417.25 256.30 418.38 254.16 C 423.35 254.42 428.33 254.69 433.30 254.95 C 433.86 266.52 434.43 278.09 435.00 289.66 Z" fill="#7aa1f8" fill-opacity="0.6" fill-rule="nonzero" group-id="1,17" node-id="208" stroke="none" target-height="35.5" target-width="20.01001" target-x="414.99" target-y="254.16"></path></g><g node-id="276"><path d="M 427.59 294.06 C 418.34 292.36 409.10 290.65 399.85 288.95 C 399.28 287.10 398.70 285.24 398.12 283.39 C 401.08 280.73 404.04 278.06 407.00 275.40 C 413.87 281.62 420.73 287.84 427.59 294.06 Z" fill="#7aa1f8" fill-opacity="0.6" fill-rule="nonzero" group-id="1,18" node-id="213" stroke="none" target-height="18.660004" target-width="29.470001" target-x="398.12" target-y="275.4"></path></g><path d="M 439.59 285.06 C 440.28 276.76 440.98 268.46 441.67 260.16 C 443.25 259.49 444.84 258.82 446.42 258.15 C 449.03 260.53 451.63 262.91 454.24 265.28 C 449.35 271.87 444.47 278.47 439.59 285.06 Z" fill="#7aa1f8" fill-opacity="0.6" fill-rule="nonzero" group-id="1,19" node-id="218" stroke="none" target-height="26.910004" target-width="14.649994" target-x="439.59" target-y="258.15"></path></g><g node-id="260"><path d="M 340.07 502.35 C 338.34 502.35 336.93 503.87 336.93 505.75 L 336.93 516.21 C 336.93 518.09 338.33 519.61 340.07 519.61 C 341.81 519.61 343.21 518.09 343.21 516.21 L 343.21 505.75 C 343.21 503.87 341.81 502.35 340.07 502.35 Z" fill="#f5986a" fill-rule="evenodd" group-id="2" id="圆角矩形-5_10_" node-id="54" stroke="none" target-height="17.25998" target-width="6.279999" target-x="336.93" target-y="502.35"></path><path d="M 344.26 496.60 C 338.66 496.22 337.80 499.95 337.95 502.82 C 337.65 502.57 337.28 502.33 336.94 502.35 C 335.78 502.42 335.89 503.92 335.89 503.92 C 335.89 503.92 335.74 504.54 336.41 505.49 C 336.91 506.21 338.31 506.79 338.83 506.99 L 339.03 507.59 C 339.03 507.59 339.86 509.36 340.60 510.20 C 341.64 511.39 342.17 511.77 342.17 511.77 C 342.17 511.77 343.17 512.54 344.26 512.82 C 345.26 513.07 346.35 512.82 346.35 512.82 C 346.35 512.82 347.67 512.66 347.92 510.73 C 348.07 509.54 348.13 508.05 348.13 506.57 L 348.13 506.20 C 348.11 503.39 347.92 500.79 347.92 500.79 C 347.92 500.79 347.59 496.82 344.26 496.60 Z" fill="#f8ad72" fill-rule="evenodd" group-id="2" id="Combined-shape-564_10_" node-id="55" stroke="none" target-height="16.850006" target-width="12.390015" target-x="335.74" target-y="496.22"></path><path d="M 342.16 501.31 C 342.16 501.31 345.58 501.96 347.39 501.31 C 349.24 500.65 349.48 498.70 349.48 498.70 C 349.48 498.70 349.53 497.24 348.96 496.09 C 348.51 495.18 347.39 494.52 347.39 494.52 C 347.39 494.52 346.44 493.82 345.30 494.00 C 344.39 494.14 343.73 495.05 343.73 495.05 C 343.73 495.05 342.54 496.23 341.64 496.62 C 340.71 497.02 339.55 496.62 339.55 496.62 C 339.55 496.62 337.73 496.20 336.41 497.67 C 334.41 499.90 334.84 502.90 334.84 502.90 C 334.84 502.90 335.17 504.85 335.89 506.56 C 336.47 507.96 337.46 508.65 337.46 508.65 C 337.46 508.65 337.98 509.03 338.51 508.65 C 339.10 508.22 338.51 507.60 338.51 507.60 L 337.99 506.55 C 337.99 506.55 335.93 506.55 335.90 503.41 C 335.89 502.89 336.95 502.89 336.95 502.89 C 336.95 502.89 337.55 502.88 338.00 503.41 C 338.25 503.70 338.52 504.98 338.52 504.98 C 338.52 504.98 338.74 502.43 339.57 501.84 C 340.54 501.12 342.16 501.31 342.16 501.31 Z" fill="#272b73" fill-rule="evenodd" group-id="2" id="形状-17_10_" node-id="56" stroke="none" target-height="15.209991" target-width="15.119995" target-x="334.41" target-y="493.82"></path><path d="M 328.18 624.71 L 325.07 629.55 L 338.26 638.04 C 338.26 638.04 339.32 636.66 338.64 634.55 C 337.96 632.44 334.81 630.84 334.81 630.84 C 334.81 630.84 333.75 630.23 333.33 629.27 C 333.01 628.53 333.02 627.82 333.02 627.82 L 328.18 624.71 Z" fill="#262a71" fill-rule="evenodd" group-id="2" id="形状-30-拷贝_10_" node-id="57" stroke="none" target-height="13.329956" target-width="14.25" target-x="325.07" target-y="624.71"></path><path d="M 352.10 564.06 L 354.71 589.69 C 354.71 589.69 354.82 590.47 354.71 591.26 C 354.56 592.28 354.19 593.35 354.19 593.35 L 335.36 629.43 L 329.08 625.25 C 329.08 625.25 333.25 608.29 336.92 599.10 C 338.44 595.29 342.15 592.82 342.15 592.82 C 342.15 592.82 337.30 583.55 334.83 575.04 C 333.50 570.47 333.78 564.06 333.78 564.06 L 352.10 564.06 Z" fill="#151145" fill-rule="evenodd" group-id="2" id="形状-34_4_" node-id="58" stroke="none" target-height="65.369995" target-width="25.74002" target-x="329.08" target-y="564.06"></path><path d="M 347.39 563.01 C 347.39 563.01 346.91 579.00 345.30 594.91 C 343.30 614.67 340.07 635.18 340.07 635.18 L 334.32 635.18 C 334.32 635.18 331.49 616.22 331.18 603.28 C 330.99 595.15 332.75 590.73 332.75 590.73 C 332.75 590.73 330.95 582.91 329.61 575.04 C 328.66 569.45 328.56 563.01 328.56 563.01 L 347.39 563.01 Z" fill="#27327b" fill-rule="evenodd" group-id="2" id="形状-29-拷贝_4_" node-id="59" stroke="none" target-height="72.16998" target-width="18.830017" target-x="328.56" target-y="563.01"></path><path d="M 334.32 635.18 L 334.32 640.93 L 350.01 640.93 C 350.01 640.93 350.16 639.20 348.44 637.79 C 346.73 636.39 343.21 636.74 343.21 636.74 C 343.21 636.74 341.99 636.80 341.12 636.22 C 340.45 635.77 340.07 635.17 340.07 635.17 L 334.32 635.17 Z" fill="#2b3682" fill-rule="evenodd" group-id="2" id="形状-30_10_" node-id="60" stroke="none" target-height="5.76001" target-width="15.839996" target-x="334.32" target-y="635.17"></path><path d="M 360.85 533.01 C 360.85 533.01 363.35 532.11 364.41 532.00 C 365.28 531.91 364.36 533.17 364.36 533.17 C 364.36 533.17 364.70 533.46 365.53 533.22 C 365.89 533.12 366.94 532.50 367.21 532.36 C 367.65 532.12 367.92 532.16 367.92 532.16 C 367.92 532.16 370.02 532.42 368.48 535.46 C 367.62 537.15 362.23 539.16 362.23 539.16 L 360.85 533.01 Z" fill="#f48d67" fill-rule="evenodd" group-id="2" id="形状-26-拷贝_3_" node-id="61" stroke="none" target-height="7.25" target-width="9.169983" target-x="360.85" target-y="531.91"></path><path d="M 350.68 521.51 L 345.82 536.10 L 360.64 532.69 L 361.96 538.85 L 340.79 544.73 C 340.79 544.73 339.83 544.67 339.22 544.22 C 338.57 543.74 338.26 542.87 338.26 542.87 L 336.18 534.21 L 350.68 521.51 Z" fill="#7aa1f8" fill-rule="evenodd" group-id="2" id="形状-31_2_" node-id="62" stroke="none" target-height="23.21997" target-width="25.779999" target-x="336.18" target-y="521.51"></path><path d="M 352.10 523.27 L 352.10 564.06 L 325.95 564.06 L 325.95 523.79 C 325.95 523.79 325.91 521.81 327.00 520.13 C 328.07 518.48 330.14 517.52 330.14 517.52 L 335.82 514.46 L 336.93 513.86 C 336.93 513.86 337.04 514.15 337.24 514.57 C 337.51 515.10 337.94 515.85 338.50 516.47 C 339.81 517.93 341.64 519.09 341.64 519.09 C 341.64 519.09 342.35 518.72 342.69 518.04 C 342.96 517.50 343.09 516.82 343.16 516.38 L 343.16 516.36 C 343.20 516.11 343.21 515.95 343.21 515.95 C 343.21 515.95 343.62 515.99 344.26 516.12 C 345.57 516.38 347.83 517.03 349.48 518.56 C 351.74 520.65 352.10 523.27 352.10 523.27 Z" fill="#7aa1f8" fill-rule="evenodd" group-id="2" node-id="233" stroke="none" target-height="50.200012" target-width="26.190002" target-x="325.91" target-y="513.86"></path><path d="M 338.01 512.67 C 338.01 512.67 337.95 510.01 338.19 508.98 C 338.38 508.12 339.28 509.40 339.28 509.40 C 339.28 509.40 339.66 509.17 339.70 508.31 C 339.72 507.94 339.47 506.75 339.42 506.45 C 339.34 505.96 339.46 505.71 339.46 505.71 C 339.46 505.71 340.37 503.80 342.77 506.24 C 344.10 507.59 344.28 513.35 344.28 513.35 L 338.01 512.67 Z" fill="#ef8d61" fill-rule="evenodd" group-id="2" id="形状-26_10_" node-id="64" stroke="none" target-height="9.549988" target-width="6.3299866" target-x="337.95" target-y="503.8"></path><path d="M 344.51 513.16 L 344.26 516.12 L 343.85 520.96 L 343.85 520.98 L 342.57 536.38 C 342.57 536.41 342.56 537.17 341.69 537.79 C 341.21 538.12 340.15 538.38 340.15 538.38 L 325.95 541.59 L 325.95 532.37 L 334.92 531.17 L 336.69 518.49 L 337.24 514.57 L 337.48 512.84 L 344.51 513.16 Z" fill="#5a8fed" fill-rule="evenodd" group-id="2" node-id="236" stroke="none" target-height="28.75" target-width="18.559998" target-x="325.95" target-y="512.84"></path></g><g node-id="261"><path d="M 576.55 589.67 L 390.76 589.67 C 382.09 589.67 375.05 582.64 375.05 573.96 L 375.05 368.64 C 375.05 359.97 382.08 352.93 390.76 352.93 L 576.55 352.93 C 585.22 352.93 592.26 359.96 592.26 368.64 L 592.26 573.96 C 592.26 582.64 585.23 589.67 576.55 589.67 Z" fill="url(#SVGID_5_)" fill-rule="nonzero" group-id="3" node-id="241" stroke="none" target-height="236.73999" target-width="217.21002" target-x="375.05" target-y="352.93"></path><g node-id="278"><path d="M 647.87 558.61 C 647.87 588.69 623.48 613.08 593.40 613.08 C 563.32 613.08 538.93 588.69 538.93 558.61 C 538.93 528.53 563.32 504.14 593.40 504.14 C 623.48 504.14 647.87 528.53 647.87 558.61 Z" fill="url(#SVGID_6_)" fill-rule="nonzero" group-id="3,20" node-id="245" stroke="none" target-height="108.94" target-width="108.94" target-x="538.93" target-y="504.14"></path><path d="M 590.39 531.03 C 590.39 540.43 590.39 549.83 590.39 559.23 C 599.02 563.84 607.64 568.45 616.27 573.06" fill="none" group-id="3,20" node-id="247" stroke="#ffffff" stroke-linecap="round" stroke-width="15.5577" target-height="42.02997" target-width="25.880005" target-x="590.39" target-y="531.03"></path><path d="M 426.48 409.26 L 540.84 409.26" fill="none" group-id="3,20" node-id="249" stroke="#ffffff" stroke-linecap="round" stroke-width="19.4471" target-height="0" target-width="114.360016" target-x="426.48" target-y="409.26"></path><path d="M 426.48 453.08 L 540.84 453.08" fill="none" group-id="3,20" node-id="251" stroke="#ffffff" stroke-linecap="round" stroke-width="19.4471" target-height="0" target-width="114.360016" target-x="426.48" target-y="453.08"></path><path d="M 426.48 496.89 L 540.84 496.89" fill="none" group-id="3,20" node-id="253" stroke="#ffffff" stroke-linecap="round" stroke-width="19.4471" target-height="0" target-width="114.360016" target-x="426.48" target-y="496.89"></path><path d="M 426.48 540.71 L 498.95 540.71" fill="none" group-id="3,20" node-id="255" stroke="#ffffff" stroke-linecap="round" stroke-width="19.4471" target-height="0" target-width="72.47" target-x="426.48" target-y="540.71"></path><path d="M 534.48 338.20 L 516.49 338.20 L 516.49 335.66 C 516.49 317.61 501.86 302.97 483.80 302.97 C 465.74 302.97 451.11 317.60 451.11 335.66 L 451.11 338.20 L 432.82 338.20 C 430.49 338.20 428.59 340.09 428.59 342.43 L 428.59 371.75 C 428.59 374.08 430.48 375.98 432.82 375.98 L 534.47 375.98 C 536.80 375.98 538.70 374.09 538.70 371.75 L 538.70 342.43 C 538.71 340.09 536.82 338.20 534.48 338.20 Z M 483.66 346.35 C 477.28 346.35 472.10 341.18 472.10 334.79 C 472.10 328.40 477.27 323.23 483.66 323.23 C 490.05 323.23 495.22 328.40 495.22 334.79 C 495.22 341.18 490.04 346.35 483.66 346.35 Z" fill="url(#SVGID_7_)" fill-rule="nonzero" group-id="3,20" node-id="257" stroke="none" target-height="73.01001" target-width="110.120026" target-x="428.59" target-y="302.97"></path></g></g></svg>