<?xml version="1.0" standalone="no"?><!DOCTYPE svg PUBLIC "-//W3C//DTD SVG 1.1//EN" "http://www.w3.org/Graphics/SVG/1.1/DTD/svg11.dtd"><svg height="800" node-id="1" sillyvg="true" template-height="800" template-width="800" version="1.1" viewBox="0 0 800 800" width="800" xmlns="http://www.w3.org/2000/svg" xmlns:xlink="http://www.w3.org/1999/xlink"><defs node-id="256"><linearGradient gradientUnits="userSpaceOnUse" id="SVGID_1_" node-id="8" spreadMethod="pad" x1="402.9527" x2="402.9527" y1="163.1096" y2="718.6012"><stop offset="0.00000009590021" stop-color="#f4f2fb"></stop><stop offset="1" stop-color="#e1eef5"></stop></linearGradient><linearGradient gradientUnits="userSpaceOnUse" id="SVGID_2_" node-id="12" spreadMethod="pad" x1="371.599" x2="530.4208" y1="555.537" y2="280.4496"><stop offset="0.3396" stop-color="#b0b9e1"></stop><stop offset="0.8657" stop-color="#eaf0f8"></stop></linearGradient><linearGradient gradientUnits="userSpaceOnUse" id="SVGID_3_" node-id="17" spreadMethod="pad" x1="118.0345" x2="118.0345" y1="543.4959" y2="406.3214"><stop offset="0.2267" stop-color="#b7ace0"></stop><stop offset="0.7893" stop-color="#e8e7fa"></stop></linearGradient><linearGradient gradientUnits="userSpaceOnUse" id="SVGID_4_" node-id="22" spreadMethod="pad" x1="118.0364" x2="118.0364" y1="421.553" y2="572.6863"><stop offset="0" stop-color="#ecf1fb"></stop><stop offset="0.818" stop-color="#afb0e7"></stop></linearGradient><linearGradient gradientUnits="userSpaceOnUse" id="SVGID_5_" node-id="27" spreadMethod="pad" x1="619.1633" x2="619.1633" y1="451.974" y2="363.6495"><stop offset="0.2267" stop-color="#ccd4f4"></stop><stop offset="0.7893" stop-color="#ecf1fb"></stop></linearGradient><linearGradient gradientUnits="userSpaceOnUse" id="SVGID_6_" node-id="32" spreadMethod="pad" x1="619.1646" x2="619.1646" y1="373.4569" y2="470.7693"><stop offset="0" stop-color="#ecf1fb"></stop><stop offset="1" stop-color="#a6a8e2"></stop></linearGradient><linearGradient gradientUnits="userSpaceOnUse" id="SVGID_7_" node-id="36" spreadMethod="pad" x1="465.0815" x2="430.3272" y1="89.3673" y2="149.5635"><stop offset="0" stop-color="#ffdb80"></stop><stop offset="1" stop-color="#ffbb24"></stop></linearGradient><linearGradient gradientUnits="userSpaceOnUse" id="SVGID_8_" node-id="40" spreadMethod="pad" x1="422.7443" x2="422.7443" y1="119.8335" y2="177.2875"><stop offset="0" stop-color="#f9fafe"></stop><stop offset="1" stop-color="#e5edf7"></stop></linearGradient><linearGradient gradientUnits="userSpaceOnUse" id="SVGID_9_" node-id="45" spreadMethod="pad" x1="689.7657" x2="689.7657" y1="541.2141" y2="513.3859"><stop offset="0.2267" stop-color="#afb0e7"></stop><stop offset="1" stop-color="#ecf1fb"></stop></linearGradient><linearGradient gradientUnits="userSpaceOnUse" id="SVGID_10_" node-id="49" spreadMethod="pad" x1="689.8148" x2="689.8148" y1="516.8995" y2="561.6954"><stop offset="0.00000009590021" stop-color="#dde1f6"></stop><stop offset="0.818" stop-color="#a6a8e2"></stop></linearGradient><linearGradient gradientUnits="userSpaceOnUse" id="SVGID_11_" node-id="54" spreadMethod="pad" x1="360.2241" x2="180.4059" y1="549.9966" y2="370.1783"><stop offset="0.003192113" stop-color="#9a9adb"></stop><stop offset="0.7893" stop-color="#cecdf1"></stop></linearGradient><linearGradient gradientUnits="userSpaceOnUse" id="SVGID_12_" node-id="58" spreadMethod="pad" x1="-2757.1003" x2="-2540.5945" y1="441.5973" y2="441.5973"><stop offset="0.2298" stop-color="#f4f7ff"></stop><stop offset="0.5247" stop-color="#bfbeeb"></stop><stop offset="1" stop-color="#e9effb"></stop></linearGradient><linearGradient gradientUnits="userSpaceOnUse" id="SVGID_13_" node-id="63" spreadMethod="pad" x1="618.8484" x2="247.381" y1="524.8136" y2="310.3468"><stop offset="0.003192113" stop-color="#9a9adb"></stop><stop offset="0.7893" stop-color="#cecdf1"></stop></linearGradient><linearGradient gradientUnits="userSpaceOnUse" id="SVGID_14_" node-id="67" spreadMethod="pad" x1="272.3536" x2="583.9812" y1="265.6468" y2="577.2744"><stop offset="0.1157" stop-color="#dee4ff"></stop><stop offset="0.8472" stop-color="#bacbee"></stop></linearGradient><linearGradient gradientUnits="userSpaceOnUse" id="SVGID_15_" node-id="71" spreadMethod="pad" x1="527.8647" x2="337.1716" y1="584.5582" y2="254.2679"><stop offset="0.003192113" stop-color="#9a9adb"></stop><stop offset="0.7893" stop-color="#cecdf1"></stop></linearGradient><linearGradient gradientUnits="userSpaceOnUse" id="SVGID_16_" node-id="75" spreadMethod="pad" x1="429.5366" x2="429.5366" y1="576.3717" y2="267.2029"><stop offset="0" stop-color="#f3f6ff"></stop><stop offset="0.5247" stop-color="#fdfeff"></stop><stop offset="1" stop-color="#f3f6ff"></stop></linearGradient><linearGradient gradientUnits="userSpaceOnUse" id="SVGID_17_" node-id="80" spreadMethod="pad" x1="340.2395" x2="329.7527" y1="299.9108" y2="281.7472"><stop offset="0.003192113" stop-color="#9a9adb"></stop><stop offset="0.7893" stop-color="#cecdf1"></stop></linearGradient><linearGradient gradientUnits="userSpaceOnUse" id="SVGID_18_" node-id="84" spreadMethod="pad" x1="377.9511" x2="367.4644" y1="299.9108" y2="281.7472"><stop offset="0.003192113" stop-color="#9a9adb"></stop><stop offset="0.7893" stop-color="#cecdf1"></stop></linearGradient><linearGradient gradientUnits="userSpaceOnUse" id="SVGID_19_" node-id="88" spreadMethod="pad" x1="415.5707" x2="405.084" y1="299.9108" y2="281.7472"><stop offset="0.003192113" stop-color="#9a9adb"></stop><stop offset="0.7893" stop-color="#cecdf1"></stop></linearGradient><linearGradient gradientUnits="userSpaceOnUse" id="SVGID_20_" node-id="92" spreadMethod="pad" x1="452.9695" x2="442.4828" y1="299.9108" y2="281.7472"><stop offset="0.003192113" stop-color="#9a9adb"></stop><stop offset="0.7893" stop-color="#cecdf1"></stop></linearGradient><linearGradient gradientUnits="userSpaceOnUse" id="SVGID_21_" node-id="96" spreadMethod="pad" x1="490.626" x2="480.1392" y1="299.9108" y2="281.7472"><stop offset="0.003192113" stop-color="#9a9adb"></stop><stop offset="0.7893" stop-color="#cecdf1"></stop></linearGradient><linearGradient gradientUnits="userSpaceOnUse" id="SVGID_22_" node-id="100" spreadMethod="pad" x1="528.172" x2="517.6852" y1="299.9108" y2="281.7472"><stop offset="0.003192113" stop-color="#9a9adb"></stop><stop offset="0.7893" stop-color="#cecdf1"></stop></linearGradient><linearGradient gradientUnits="userSpaceOnUse" id="SVGID_23_" node-id="104" spreadMethod="pad" x1="340.918" x2="327.326" y1="298.4991" y2="284.9071"><stop offset="0.15" stop-color="#afc5d8"></stop><stop offset="1" stop-color="#dfe8f9"></stop></linearGradient><linearGradient gradientUnits="userSpaceOnUse" id="SVGID_24_" node-id="108" spreadMethod="pad" x1="324.511" x2="343.733" y1="291.7031" y2="291.7031"><stop offset="0.1157" stop-color="#dee4ff"></stop><stop offset="0.8472" stop-color="#bacbee"></stop></linearGradient><linearGradient gradientUnits="userSpaceOnUse" id="SVGID_25_" node-id="112" spreadMethod="pad" x1="362.0811" x2="381.3031" y1="291.7031" y2="291.7031"><stop offset="0.1157" stop-color="#dee4ff"></stop><stop offset="0.8472" stop-color="#bacbee"></stop></linearGradient><linearGradient gradientUnits="userSpaceOnUse" id="SVGID_26_" node-id="116" spreadMethod="pad" x1="399.6513" x2="418.8732" y1="291.7031" y2="291.7031"><stop offset="0.1157" stop-color="#dee4ff"></stop><stop offset="0.8472" stop-color="#bacbee"></stop></linearGradient><linearGradient gradientUnits="userSpaceOnUse" id="SVGID_27_" node-id="120" spreadMethod="pad" x1="437.2214" x2="456.4433" y1="291.7031" y2="291.7031"><stop offset="0.1157" stop-color="#dee4ff"></stop><stop offset="0.8472" stop-color="#bacbee"></stop></linearGradient><linearGradient gradientUnits="userSpaceOnUse" id="SVGID_28_" node-id="124" spreadMethod="pad" x1="474.7915" x2="494.0134" y1="291.7031" y2="291.7031"><stop offset="0.1157" stop-color="#dee4ff"></stop><stop offset="0.8472" stop-color="#bacbee"></stop></linearGradient><linearGradient gradientUnits="userSpaceOnUse" id="SVGID_29_" node-id="128" spreadMethod="pad" x1="512.3616" x2="531.5835" y1="291.7031" y2="291.7031"><stop offset="0.1157" stop-color="#dee4ff"></stop><stop offset="0.8472" stop-color="#bacbee"></stop></linearGradient><linearGradient gradientUnits="userSpaceOnUse" id="SVGID_30_" node-id="132" spreadMethod="pad" x1="337.4647" x2="330.7793" y1="285.9134" y2="297.4928"><stop offset="0.003192113" stop-color="#9a9adb"></stop><stop offset="0.7893" stop-color="#cecdf1"></stop></linearGradient><linearGradient gradientUnits="userSpaceOnUse" id="SVGID_31_" node-id="136" spreadMethod="pad" x1="375.0659" x2="368.3806" y1="285.9134" y2="297.4928"><stop offset="0.003192113" stop-color="#9a9adb"></stop><stop offset="0.7893" stop-color="#cecdf1"></stop></linearGradient><linearGradient gradientUnits="userSpaceOnUse" id="SVGID_32_" node-id="140" spreadMethod="pad" x1="412.5567" x2="405.8714" y1="285.9134" y2="297.4928"><stop offset="0.003192113" stop-color="#9a9adb"></stop><stop offset="0.7893" stop-color="#cecdf1"></stop></linearGradient><linearGradient gradientUnits="userSpaceOnUse" id="SVGID_33_" node-id="144" spreadMethod="pad" x1="450.0659" x2="443.3806" y1="285.9134" y2="297.4928"><stop offset="0.003192113" stop-color="#9a9adb"></stop><stop offset="0.7893" stop-color="#cecdf1"></stop></linearGradient><linearGradient gradientUnits="userSpaceOnUse" id="SVGID_34_" node-id="148" spreadMethod="pad" x1="487.7224" x2="481.037" y1="285.9134" y2="297.4928"><stop offset="0.003192113" stop-color="#9a9adb"></stop><stop offset="0.7893" stop-color="#cecdf1"></stop></linearGradient><linearGradient gradientUnits="userSpaceOnUse" id="SVGID_35_" node-id="152" spreadMethod="pad" x1="525.3788" x2="518.6934" y1="285.9134" y2="297.4928"><stop offset="0.003192113" stop-color="#9a9adb"></stop><stop offset="0.7893" stop-color="#cecdf1"></stop></linearGradient><linearGradient gradientTransform="matrix(1.0699 0.0431 0.0431 1.0699 -238.9872 -277.0103)" gradientUnits="userSpaceOnUse" id="SVGID_36_" node-id="156" spreadMethod="pad" x1="633.8461" x2="570.9109" y1="657.1369" y2="622.5333"><stop offset="0.003192113" stop-color="#9a9adb"></stop><stop offset="0.7893" stop-color="#cecdf1"></stop></linearGradient><linearGradient gradientUnits="userSpaceOnUse" id="SVGID_37_" node-id="160" spreadMethod="pad" x1="367.543" x2="494.5895" y1="428.4294" y2="428.4294"><stop offset="0.1157" stop-color="#dee4ff"></stop><stop offset="0.8472" stop-color="#bacbee"></stop></linearGradient><linearGradient gradientUnits="userSpaceOnUse" id="SVGID_38_" node-id="165" spreadMethod="pad" x1="419.4349" x2="437.8355" y1="486.7767" y2="486.7767"><stop offset="0.1157" stop-color="#dee4ff"></stop><stop offset="0.8472" stop-color="#bacbee"></stop></linearGradient><linearGradient gradientUnits="userSpaceOnUse" id="SVGID_39_" node-id="169" spreadMethod="pad" x1="442.5526" x2="460.9532" y1="486.7767" y2="486.7767"><stop offset="0.1157" stop-color="#dee4ff"></stop><stop offset="0.8472" stop-color="#bacbee"></stop></linearGradient><linearGradient gradientUnits="userSpaceOnUse" id="SVGID_40_" node-id="173" spreadMethod="pad" x1="465.6703" x2="484.071" y1="486.7767" y2="486.7767"><stop offset="0.1157" stop-color="#dee4ff"></stop><stop offset="0.8472" stop-color="#bacbee"></stop></linearGradient><linearGradient gradientUnits="userSpaceOnUse" id="SVGID_41_" node-id="178" spreadMethod="pad" x1="220.9992" x2="220.9992" y1="500.2982" y2="446.9274"><stop offset="0" stop-color="#4f5c7c"></stop><stop offset="1" stop-color="#274168"></stop></linearGradient><linearGradient gradientUnits="userSpaceOnUse" id="SVGID_42_" node-id="182" spreadMethod="pad" x1="244.5102" x2="244.5102" y1="552.9979" y2="473.8291"><stop offset="0" stop-color="#c3d5fd"></stop><stop offset="1" stop-color="#1a90fc"></stop></linearGradient><linearGradient gradientUnits="userSpaceOnUse" id="SVGID_43_" node-id="186" spreadMethod="pad" x1="245.608" x2="245.608" y1="460.3269" y2="485.407"><stop offset="0" stop-color="#f4ae98"></stop><stop offset="1" stop-color="#fad1bb"></stop></linearGradient><linearGradient gradientTransform="matrix(0.9901 -0.1406 0.1406 0.9901 -237.0666 -9.8978)" gradientUnits="userSpaceOnUse" id="SVGID_44_" node-id="190" spreadMethod="pad" x1="370.7707" x2="383.0291" y1="632.0876" y2="545.775"><stop offset="0" stop-color="#c3d5fd"></stop><stop offset="1" stop-color="#1a90fc"></stop></linearGradient><linearGradient gradientTransform="matrix(-0.9901 -0.1406 -0.1406 0.9901 95.3329 -9.8978)" gradientUnits="userSpaceOnUse" id="SVGID_45_" node-id="194" spreadMethod="pad" x1="-252.1268" x2="-239.8684" y1="543.6215" y2="457.3089"><stop offset="0" stop-color="#c3d5fd"></stop><stop offset="1" stop-color="#1a90fc"></stop></linearGradient><linearGradient gradientUnits="userSpaceOnUse" id="SVGID_46_" node-id="198" spreadMethod="pad" x1="265.0298" x2="265.0298" y1="499.9259" y2="449.7373"><stop offset="0" stop-color="#4f5c7c"></stop><stop offset="1" stop-color="#274168"></stop></linearGradient><linearGradient gradientTransform="matrix(0.9995 0.0319 -0.0319 0.9995 61.6298 33.813)" gradientUnits="userSpaceOnUse" id="SVGID_47_" node-id="202" spreadMethod="pad" x1="195.5029" x2="195.5029" y1="398.7025" y2="431.3913"><stop offset="0" stop-color="#f4b9a4"></stop><stop offset="0.652" stop-color="#fad1bb"></stop></linearGradient><linearGradient gradientUnits="userSpaceOnUse" id="SVGID_48_" node-id="206" spreadMethod="pad" x1="242.4962" x2="242.4962" y1="460.1294" y2="429.9198"><stop offset="0" stop-color="#4f5c7c"></stop><stop offset="1" stop-color="#274168"></stop></linearGradient><linearGradient gradientUnits="userSpaceOnUse" id="SVGID_49_" node-id="210" spreadMethod="pad" x1="244.5102" x2="244.5102" y1="524.4069" y2="574.7175"><stop offset="0" stop-color="#275c89"></stop><stop offset="1" stop-color="#013f7c"></stop></linearGradient><linearGradient gradientUnits="userSpaceOnUse" id="SVGID_50_" node-id="216" spreadMethod="pad" x1="520.4312" x2="502.6206" y1="596.4302" y2="596.4302"><stop offset="0" stop-color="#f4b9a4"></stop><stop offset="0.652" stop-color="#fad1bb"></stop></linearGradient><linearGradient gradientUnits="userSpaceOnUse" id="SVGID_51_" node-id="220" spreadMethod="pad" x1="220.3612" x2="312.2426" y1="576.8" y2="576.8"><stop offset="0" stop-color="#18264b"></stop><stop offset="0.652" stop-color="#2d3c65"></stop></linearGradient><linearGradient gradientUnits="userSpaceOnUse" id="SVGID_52_" node-id="224" spreadMethod="pad" x1="199.6443" x2="199.6443" y1="587.7776" y2="606.6837"><stop offset="0" stop-color="#ffdb80"></stop><stop offset="1" stop-color="#ffbb24"></stop></linearGradient><linearGradient gradientUnits="userSpaceOnUse" id="SVGID_53_" node-id="230" spreadMethod="pad" x1="264.7534" x2="282.564" y1="596.4302" y2="596.4302"><stop offset="0" stop-color="#f4b9a4"></stop><stop offset="0.652" stop-color="#fad1bb"></stop></linearGradient><linearGradient gradientUnits="userSpaceOnUse" id="SVGID_54_" node-id="234" spreadMethod="pad" x1="180.1535" x2="272.035" y1="576.8" y2="576.8"><stop offset="0" stop-color="#445677"></stop><stop offset="1" stop-color="#293861"></stop></linearGradient><linearGradient gradientUnits="userSpaceOnUse" id="SVGID_55_" node-id="238" spreadMethod="pad" x1="292.7519" x2="292.7519" y1="587.7776" y2="606.6837"><stop offset="0" stop-color="#ffdb80"></stop><stop offset="1" stop-color="#ffbb24"></stop></linearGradient></defs><g node-id="743"><g node-id="744"><path d="M 486.21 204.46 C 447.84 234.75 365.47 238.27 305.04 202.24 C 244.61 166.21 133.04 170.86 102.82 237.11 C 72.60 303.36 140.01 368.44 115.60 416.09 C 91.19 463.74 9.84 531.14 65.63 612.49 C 121.42 693.84 192.23 673.11 234.85 664.94 C 319.02 648.81 424.64 780.61 543.47 681.07 C 611.94 623.72 713.91 723.16 753.64 599.71 C 786.42 497.85 667.97 460.21 703.67 391.68 C 741.63 318.80 734.34 232.44 693.21 190.62 C 654.90 151.67 552.46 152.16 486.21 204.46 Z" fill="url(#SVGID_1_)" fill-rule="nonzero" group-id="1,2" node-id="598" stroke="none" target-height="628.94" target-width="776.57996" target-x="9.84" target-y="151.67"></path><path d="M 201.13 453.35 L 318.04 524.61 L 585.43 582.63 L 699.83 378.26 L 384.89 347.34 Z" fill="url(#SVGID_2_)" fill-rule="nonzero" group-id="1,2" node-id="600" stroke="none" target-height="235.29001" target-width="498.7" target-x="201.13" target-y="347.34"></path><g node-id="747"><path d="M 118.82 406.56 C 118.82 406.56 118.60 405.99 118.30 406.60 C 115.60 412.09 91.15 471.56 89.21 517.46 C 89.21 517.46 85.13 543.83 119.32 543.48 C 147.86 543.19 147.10 518.88 147.00 510.69 C 146.61 477.47 118.82 406.56 118.82 406.56 Z" fill="url(#SVGID_3_)" fill-rule="nonzero" group-id="1,2,5" node-id="604" stroke="none" target-height="137.84003" target-width="62.730003" target-x="85.13" target-y="405.99"></path><g node-id="753"><path d="M 118.04 572.69 C 117.49 572.69 117.04 572.24 117.04 571.69 L 117.04 422.55 C 117.04 422.00 117.49 421.55 118.04 421.55 C 118.59 421.55 119.04 422.00 119.04 422.55 L 119.04 571.68 C 119.04 572.24 118.59 572.69 118.04 572.69 Z" fill="url(#SVGID_4_)" fill-rule="nonzero" group-id="1,2,5,11" node-id="608" stroke="none" target-height="151.14001" target-width="2" target-x="117.04" target-y="421.55"></path></g></g><g node-id="748"><path d="M 619.67 363.81 C 619.67 363.81 619.53 363.44 619.34 363.84 C 617.60 367.37 601.86 405.67 600.61 435.22 C 600.61 435.22 597.98 452.20 620.00 451.98 C 638.38 451.80 637.89 436.14 637.82 430.87 C 637.56 409.46 619.67 363.81 619.67 363.81 Z" fill="url(#SVGID_5_)" fill-rule="nonzero" group-id="1,2,6" node-id="614" stroke="none" target-height="88.76001" target-width="40.400024" target-x="597.98" target-y="363.44"></path><g node-id="754"><path d="M 619.16 470.77 C 618.80 470.77 618.52 470.48 618.52 470.13 L 618.52 374.10 C 618.52 373.74 618.81 373.46 619.16 373.46 C 619.51 373.46 619.80 373.75 619.80 374.10 L 619.80 470.12 C 619.81 470.48 619.52 470.77 619.16 470.77 Z" fill="url(#SVGID_6_)" fill-rule="nonzero" group-id="1,2,6,12" node-id="618" stroke="none" target-height="97.31" target-width="1.289978" target-x="618.52" target-y="373.46"></path></g></g><path d="M 482.45 119.47 C 482.45 138.66 466.89 154.22 447.70 154.22 C 428.51 154.22 412.95 138.66 412.95 119.47 C 412.95 100.28 428.51 84.72 447.70 84.72 C 466.89 84.72 482.45 100.28 482.45 119.47 Z" fill="url(#SVGID_7_)" fill-rule="nonzero" group-id="1,2" node-id="622" stroke="none" target-height="69.5" target-width="69.5" target-x="412.95" target-y="84.72"></path><path d="M 467.48 138.42 L 432.91 138.42 C 430.68 127.81 421.26 119.84 409.98 119.84 C 398.70 119.84 389.29 127.81 387.05 138.42 L 378.00 138.42 C 367.27 138.42 358.56 147.12 358.56 157.86 L 358.56 157.86 C 358.56 168.59 367.26 177.30 378.00 177.30 L 467.47 177.30 C 478.20 177.30 486.91 168.60 486.91 157.86 L 486.91 157.86 C 486.92 147.12 478.21 138.42 467.48 138.42 Z" fill="url(#SVGID_8_)" fill-rule="nonzero" group-id="1,2" node-id="624" stroke="none" target-height="57.460007" target-width="128.36002" target-x="358.56" target-y="119.84"></path><path d="M 703.68 527.30 C 703.68 534.98 697.45 541.21 689.77 541.21 C 682.09 541.21 675.86 534.98 675.86 527.30 C 675.86 519.62 682.09 513.39 689.77 513.39 C 697.45 513.39 703.68 519.62 703.68 527.30 Z" fill="url(#SVGID_9_)" fill-rule="nonzero" group-id="1,2,7" node-id="628" stroke="none" target-height="27.820007" target-width="27.820007" target-x="675.86" target-y="513.39"></path><path d="M 689.81 561.70 C 689.57 561.70 689.38 561.51 689.38 561.27 L 689.38 517.33 C 689.38 517.09 689.57 516.90 689.81 516.90 C 690.05 516.90 690.24 517.09 690.24 517.33 L 690.24 561.27 C 690.24 561.50 690.05 561.70 689.81 561.70 Z" fill="url(#SVGID_10_)" fill-rule="nonzero" group-id="1,2,7" node-id="630" stroke="none" target-height="44.799988" target-width="0.85998535" target-x="689.38" target-y="516.9"></path></g><g node-id="745"><path d="M 378.25 394.12 C 378.35 392.87 377.05 391.99 375.93 392.55 C 365.85 397.57 328.16 413.52 303.36 385.84 C 275.37 354.60 248.46 349.10 215.49 337.13 C 215.03 336.96 214.52 337.01 214.10 337.27 C 214.01 337.33 213.91 337.39 213.81 337.45 C 210.21 339.61 207.61 343.08 206.65 347.16 C 191.78 410.08 169.06 487.71 159.86 518.53 C 158.13 524.31 163.35 529.78 169.21 528.33 C 195.04 521.92 250.98 511.98 271.83 539.44 C 297.49 573.23 357.60 548.05 365.53 544.53 C 366.07 544.29 366.43 543.78 366.48 543.19 L 378.25 394.12 Z" fill="url(#SVGID_11_)" fill-rule="nonzero" group-id="1,3" node-id="636" stroke="none" target-height="236.26999" target-width="220.22" target-x="158.13" target-y="336.96"></path><path d="M 382.67 385.83 C 382.67 385.83 337.20 412.17 308.86 380.56 C 281.38 349.91 259.48 329.78 219.12 335.79 C 216.81 336.13 214.95 337.87 214.42 340.14 C 198.95 406.09 174.25 489.62 166.38 515.85 C 165.32 519.37 168.54 522.69 172.09 521.74 C 194.40 515.75 255.94 502.47 277.90 531.36 C 304.92 566.92 370.82 535.97 370.82 535.97 L 382.67 385.83 Z" fill="url(#SVGID_12_)" fill-rule="nonzero" group-id="1,3" node-id="638" stroke="none" target-height="237.13998" target-width="217.35" target-x="165.32" target-y="329.78"></path><path d="M 543.46 605.47 L 322.77 605.47 C 295.20 605.47 272.86 583.12 272.86 555.56 L 272.86 279.61 C 272.86 252.04 295.21 229.70 322.77 229.70 L 543.45 229.70 C 571.02 229.70 593.36 252.05 593.36 279.61 L 593.36 555.55 C 593.37 583.12 571.02 605.47 543.46 605.47 Z" fill="url(#SVGID_13_)" fill-rule="nonzero" group-id="1,3" node-id="640" stroke="none" target-height="375.76996" target-width="320.51" target-x="272.86" target-y="229.7"></path><path d="M 536.21 605.47 L 320.12 605.47 C 294.02 605.47 272.86 584.31 272.86 558.21 L 272.86 284.72 C 272.86 258.62 294.02 237.46 320.12 237.46 L 536.21 237.46 C 562.31 237.46 583.47 258.62 583.47 284.72 L 583.47 558.20 C 583.48 584.31 562.31 605.47 536.21 605.47 Z" fill="url(#SVGID_14_)" fill-rule="nonzero" group-id="1,3" node-id="642" stroke="none" target-height="368.00995" target-width="310.62" target-x="272.86" target-y="237.46"></path><path d="M 534.00 576.37 L 331.04 576.37 C 314.47 576.37 301.04 562.94 301.04 546.37 L 301.04 292.45 C 301.04 275.88 314.47 262.45 331.04 262.45 L 534.00 262.45 C 550.57 262.45 564.00 275.88 564.00 292.45 L 564.00 546.37 C 564.00 562.94 550.56 576.37 534.00 576.37 Z" fill="url(#SVGID_15_)" fill-rule="nonzero" group-id="1,3" node-id="644" stroke="none" target-height="313.91998" target-width="262.96" target-x="301.04" target-y="262.45"></path><path d="M 529.54 576.37 L 329.53 576.37 C 313.79 576.37 301.04 563.61 301.04 547.88 L 301.04 295.69 C 301.04 279.95 313.80 267.20 329.53 267.20 L 529.54 267.20 C 545.28 267.20 558.03 279.96 558.03 295.69 L 558.03 547.88 C 558.03 563.62 545.28 576.37 529.54 576.37 Z" fill="url(#SVGID_16_)" fill-rule="nonzero" group-id="1,3" node-id="646" stroke="none" target-height="309.16998" target-width="256.99002" target-x="301.04" target-y="267.2"></path><path d="M 345.49 290.83 C 345.49 296.62 340.79 301.32 335.00 301.32 C 329.21 301.32 324.51 296.62 324.51 290.83 C 324.51 285.04 329.21 280.34 335.00 280.34 C 340.79 280.34 345.49 285.04 345.49 290.83 Z" fill="url(#SVGID_17_)" fill-rule="nonzero" group-id="1,3" node-id="648" stroke="none" target-height="20.980011" target-width="20.97998" target-x="324.51" target-y="280.34"></path><path d="M 383.20 290.83 C 383.20 296.62 378.50 301.32 372.71 301.32 C 366.92 301.32 362.22 296.62 362.22 290.83 C 362.22 285.04 366.92 280.34 372.71 280.34 C 378.50 280.34 383.20 285.04 383.20 290.83 Z" fill="url(#SVGID_18_)" fill-rule="nonzero" group-id="1,3" node-id="650" stroke="none" target-height="20.980011" target-width="20.980011" target-x="362.22" target-y="280.34"></path><path d="M 420.82 290.83 C 420.82 296.62 416.12 301.32 410.33 301.32 C 404.54 301.32 399.84 296.62 399.84 290.83 C 399.84 285.04 404.54 280.34 410.33 280.34 C 416.12 280.34 420.82 285.04 420.82 290.83 Z" fill="url(#SVGID_19_)" fill-rule="nonzero" group-id="1,3" node-id="652" stroke="none" target-height="20.980011" target-width="20.980011" target-x="399.84" target-y="280.34"></path><path d="M 458.22 290.83 C 458.22 296.62 453.52 301.32 447.73 301.32 C 441.94 301.32 437.24 296.62 437.24 290.83 C 437.24 285.04 441.94 280.34 447.73 280.34 C 453.52 280.34 458.22 285.04 458.22 290.83 Z" fill="url(#SVGID_20_)" fill-rule="nonzero" group-id="1,3" node-id="654" stroke="none" target-height="20.980011" target-width="20.980011" target-x="437.24" target-y="280.34"></path><path d="M 495.87 290.83 C 495.87 296.62 491.17 301.32 485.38 301.32 C 479.59 301.32 474.89 296.62 474.89 290.83 C 474.89 285.04 479.59 280.34 485.38 280.34 C 491.17 280.34 495.87 285.04 495.87 290.83 Z" fill="url(#SVGID_21_)" fill-rule="nonzero" group-id="1,3" node-id="656" stroke="none" target-height="20.980011" target-width="20.97998" target-x="474.89" target-y="280.34"></path><path d="M 533.42 290.83 C 533.42 296.62 528.72 301.32 522.93 301.32 C 517.14 301.32 512.44 296.62 512.44 290.83 C 512.44 285.04 517.14 280.34 522.93 280.34 C 528.72 280.34 533.42 285.04 533.42 290.83 Z" fill="url(#SVGID_22_)" fill-rule="nonzero" group-id="1,3" node-id="658" stroke="none" target-height="20.980011" target-width="20.97998" target-x="512.44" target-y="280.34"></path><path d="M 343.73 291.70 C 343.73 297.01 339.43 301.31 334.12 301.31 C 328.81 301.31 324.51 297.01 324.51 291.70 C 324.51 286.39 328.81 282.09 334.12 282.09 C 339.43 282.09 343.73 286.39 343.73 291.70 Z" fill="url(#SVGID_23_)" fill-rule="nonzero" group-id="1,3" node-id="660" stroke="none" target-height="19.220001" target-width="19.220001" target-x="324.51" target-y="282.09"></path><path d="M 343.73 291.70 C 343.73 297.01 339.43 301.31 334.12 301.31 C 328.81 301.31 324.51 297.01 324.51 291.70 C 324.51 286.39 328.81 282.09 334.12 282.09 C 339.43 282.09 343.73 286.39 343.73 291.70 Z" fill="url(#SVGID_24_)" fill-rule="nonzero" group-id="1,3" node-id="662" stroke="none" target-height="19.220001" target-width="19.220001" target-x="324.51" target-y="282.09"></path><path d="M 381.30 291.70 C 381.30 297.01 377.00 301.31 371.69 301.31 C 366.38 301.31 362.08 297.01 362.08 291.70 C 362.08 286.39 366.38 282.09 371.69 282.09 C 377.00 282.09 381.30 286.39 381.30 291.70 Z" fill="url(#SVGID_25_)" fill-rule="nonzero" group-id="1,3" node-id="664" stroke="none" target-height="19.220001" target-width="19.220001" target-x="362.08" target-y="282.09"></path><path d="M 418.87 291.70 C 418.87 297.01 414.57 301.31 409.26 301.31 C 403.95 301.31 399.65 297.01 399.65 291.70 C 399.65 286.39 403.95 282.09 409.26 282.09 C 414.57 282.09 418.87 286.39 418.87 291.70 Z" fill="url(#SVGID_26_)" fill-rule="nonzero" group-id="1,3" node-id="666" stroke="none" target-height="19.220001" target-width="19.220001" target-x="399.65" target-y="282.09"></path><path d="M 456.44 291.70 C 456.44 297.01 452.14 301.31 446.83 301.31 C 441.52 301.31 437.22 297.01 437.22 291.70 C 437.22 286.39 441.52 282.09 446.83 282.09 C 452.14 282.09 456.44 286.39 456.44 291.70 Z" fill="url(#SVGID_27_)" fill-rule="nonzero" group-id="1,3" node-id="668" stroke="none" target-height="19.220001" target-width="19.220001" target-x="437.22" target-y="282.09"></path><path d="M 494.01 291.70 C 494.01 297.01 489.71 301.31 484.40 301.31 C 479.09 301.31 474.79 297.01 474.79 291.70 C 474.79 286.39 479.09 282.09 484.40 282.09 C 489.71 282.09 494.01 286.39 494.01 291.70 Z" fill="url(#SVGID_28_)" fill-rule="nonzero" group-id="1,3" node-id="670" stroke="none" target-height="19.220001" target-width="19.220001" target-x="474.79" target-y="282.09"></path><path d="M 531.58 291.70 C 531.58 297.01 527.28 301.31 521.97 301.31 C 516.66 301.31 512.36 297.01 512.36 291.70 C 512.36 286.39 516.66 282.09 521.97 282.09 C 527.28 282.09 531.58 286.39 531.58 291.70 Z" fill="url(#SVGID_29_)" fill-rule="nonzero" group-id="1,3" node-id="672" stroke="none" target-height="19.220001" target-width="19.220032" target-x="512.36" target-y="282.09"></path><path d="M 340.80 291.70 C 340.80 295.39 337.81 298.38 334.12 298.38 C 330.43 298.38 327.44 295.39 327.44 291.70 C 327.44 288.01 330.43 285.02 334.12 285.02 C 337.81 285.02 340.80 288.01 340.80 291.70 Z" fill="url(#SVGID_30_)" fill-rule="nonzero" group-id="1,3" node-id="674" stroke="none" target-height="13.360016" target-width="13.359985" target-x="327.44" target-y="285.02"></path><path d="M 378.40 291.70 C 378.40 295.39 375.41 298.38 371.72 298.38 C 368.03 298.38 365.04 295.39 365.04 291.70 C 365.04 288.01 368.03 285.02 371.72 285.02 C 375.41 285.02 378.40 288.01 378.40 291.70 Z" fill="url(#SVGID_31_)" fill-rule="nonzero" group-id="1,3" node-id="676" stroke="none" target-height="13.360016" target-width="13.359985" target-x="365.04" target-y="285.02"></path><path d="M 415.89 291.70 C 415.89 295.39 412.90 298.38 409.21 298.38 C 405.52 298.38 402.53 295.39 402.53 291.70 C 402.53 288.01 405.52 285.02 409.21 285.02 C 412.90 285.02 415.89 288.01 415.89 291.70 Z" fill="url(#SVGID_32_)" fill-rule="nonzero" group-id="1,3" node-id="678" stroke="none" target-height="13.360016" target-width="13.360016" target-x="402.53" target-y="285.02"></path><path d="M 453.40 291.70 C 453.40 295.39 450.41 298.38 446.72 298.38 C 443.03 298.38 440.04 295.39 440.04 291.70 C 440.04 288.01 443.03 285.02 446.72 285.02 C 450.41 285.02 453.40 288.01 453.40 291.70 Z" fill="url(#SVGID_33_)" fill-rule="nonzero" group-id="1,3" node-id="680" stroke="none" target-height="13.360016" target-width="13.359985" target-x="440.04" target-y="285.02"></path><path d="M 491.06 291.70 C 491.06 295.39 488.07 298.38 484.38 298.38 C 480.69 298.38 477.70 295.39 477.70 291.70 C 477.70 288.01 480.69 285.02 484.38 285.02 C 488.07 285.02 491.06 288.01 491.06 291.70 Z" fill="url(#SVGID_34_)" fill-rule="nonzero" group-id="1,3" node-id="682" stroke="none" target-height="13.360016" target-width="13.359985" target-x="477.7" target-y="285.02"></path><path d="M 528.72 291.70 C 528.72 295.39 525.73 298.38 522.04 298.38 C 518.35 298.38 515.36 295.39 515.36 291.70 C 515.36 288.01 518.35 285.02 522.04 285.02 C 525.73 285.02 528.72 288.01 528.72 291.70 Z" fill="url(#SVGID_35_)" fill-rule="nonzero" group-id="1,3" node-id="684" stroke="none" target-height="13.360016" target-width="13.359985" target-x="515.36" target-y="285.02"></path><path d="M 408.03 484.82 L 374.62 494.05 C 371.46 494.92 368.31 491.85 369.10 488.66 L 377.55 454.39 C 377.72 453.71 378.06 453.09 378.55 452.60 L 467.43 363.72 C 470.28 360.87 475.10 361.06 478.19 364.15 L 496.77 382.84 C 499.86 385.93 500.08 393.44 496.33 397.17 L 409.71 483.84 C 409.25 484.31 408.67 484.64 408.03 484.82 Z" fill="url(#SVGID_36_)" fill-rule="nonzero" group-id="1,3" node-id="686" stroke="none" target-height="134.05002" target-width="131.76999" target-x="368.31" target-y="360.87"></path><path d="M 404.29 482.24 L 372.67 492.14 C 369.68 493.08 366.85 490.32 367.70 487.31 L 376.90 454.90 C 377.08 454.25 377.43 453.67 377.90 453.19 L 464.47 366.62 C 467.25 363.84 471.75 363.84 474.53 366.62 L 492.51 384.60 C 495.29 387.38 495.29 391.88 492.51 394.66 L 405.90 481.27 C 405.45 481.71 404.89 482.05 404.29 482.24 Z" fill="url(#SVGID_37_)" fill-rule="nonzero" group-id="1,3" node-id="688" stroke="none" target-height="129.23999" target-width="128.44" target-x="366.85" target-y="363.84"></path><g node-id="750"><path d="M 450.61 380.41 L 458.60 372.42 L 486.63 400.44 L 478.64 408.44 Z" fill="#ffffff" fill-rule="nonzero" group-id="1,3,8" node-id="692" stroke="none" target-height="36.01999" target-width="36.02002" target-x="450.61" target-y="372.42"></path></g><path d="M 437.84 486.78 C 437.84 491.86 433.72 495.98 428.64 495.98 C 423.56 495.98 419.44 491.86 419.44 486.78 C 419.44 481.70 423.56 477.58 428.64 477.58 C 433.72 477.58 437.84 481.70 437.84 486.78 Z" fill="url(#SVGID_38_)" fill-rule="nonzero" group-id="1,3" node-id="695" stroke="none" target-height="18.400024" target-width="18.399994" target-x="419.44" target-y="477.58"></path><path d="M 460.95 486.78 C 460.95 491.86 456.83 495.98 451.75 495.98 C 446.67 495.98 442.55 491.86 442.55 486.78 C 442.55 481.70 446.67 477.58 451.75 477.58 C 456.83 477.58 460.95 481.70 460.95 486.78 Z" fill="url(#SVGID_39_)" fill-rule="nonzero" group-id="1,3" node-id="697" stroke="none" target-height="18.400024" target-width="18.400024" target-x="442.55" target-y="477.58"></path><path d="M 484.07 486.78 C 484.07 491.86 479.95 495.98 474.87 495.98 C 469.79 495.98 465.67 491.86 465.67 486.78 C 465.67 481.70 469.79 477.58 474.87 477.58 C 479.95 477.58 484.07 481.70 484.07 486.78 Z" fill="url(#SVGID_40_)" fill-rule="nonzero" group-id="1,3" node-id="699" stroke="none" target-height="18.400024" target-width="18.399994" target-x="465.67" target-y="477.58"></path></g><g node-id="746"><path d="M 224.90 450.64 C 224.90 450.64 213.33 453.43 211.10 463.44 C 206.43 464.58 190.71 473.04 202.58 491.73 C 208.57 499.06 209.48 500.30 209.48 500.30 L 243.77 490.18 L 243.77 446.93 L 224.90 450.64 Z" fill="url(#SVGID_41_)" fill-rule="nonzero" group-id="1,4" node-id="704" stroke="none" target-height="53.369995" target-width="53.059998" target-x="190.71" target-y="446.93"></path><path d="M 236.34 474.20 C 236.34 474.20 217.13 471.54 210.89 480.37 C 204.65 489.20 202.37 511.79 202.37 511.79 L 216.83 511.03 L 215.61 537.35 L 242.29 553.00 L 280.29 532.56 L 274.51 508.71 L 286.65 505.54 C 286.65 505.54 283.03 470.93 266.14 476.04 C 257.47 476.97 254.73 476.81 254.73 476.81 C 254.73 476.81 252.45 484.09 244.61 483.47 C 236.77 482.85 236.34 474.20 236.34 474.20 Z" fill="url(#SVGID_42_)" fill-rule="nonzero" group-id="1,4" node-id="706" stroke="none" target-height="82.07001" target-width="84.28" target-x="202.37" target-y="470.93"></path><path d="M 238.26 463.32 L 234.27 481.12 C 234.08 481.96 234.52 482.81 235.31 483.13 C 237.37 483.97 241.50 485.40 245.75 485.40 C 250.15 485.40 254.31 482.99 256.22 481.70 C 256.88 481.26 257.15 480.43 256.90 479.68 L 250.80 461.52 C 250.52 460.69 249.68 460.20 248.82 460.35 L 239.67 461.97 C 238.97 462.10 238.42 462.63 238.26 463.32 Z" fill="url(#SVGID_43_)" fill-rule="nonzero" group-id="1,4" node-id="708" stroke="none" target-height="25.199982" target-width="23.069992" target-x="234.08" target-y="460.2"></path><path d="M 214.41 477.29 C 220.00 475.43 227.58 476.68 227.89 489.22 C 228.20 501.76 215.91 521.75 220.31 528.70 C 224.77 535.75 234.31 545.75 240.37 551.45 C 238.96 558.15 235.15 563.78 235.15 563.78 C 235.15 563.78 212.79 553.46 203.05 543.13 C 193.31 532.80 198.23 509.10 202.74 492.24 C 206.14 479.52 214.41 477.29 214.41 477.29 Z" fill="url(#SVGID_44_)" fill-rule="nonzero" group-id="1,4" node-id="710" stroke="none" target-height="88.35004" target-width="47.059998" target-x="193.31" target-y="475.43"></path><path d="M 273.01 477.29 C 267.42 475.43 259.84 476.68 259.53 489.22 C 259.22 501.76 271.51 521.75 267.11 528.70 C 262.65 535.75 253.11 545.75 247.05 551.45 C 248.46 558.15 252.27 563.78 252.27 563.78 C 252.27 563.78 274.63 553.46 284.37 543.13 C 294.11 532.80 289.19 509.10 284.68 492.24 C 281.27 479.52 273.01 477.29 273.01 477.29 Z" fill="url(#SVGID_45_)" fill-rule="nonzero" group-id="1,4" node-id="712" stroke="none" target-height="88.35004" target-width="47.059982" target-x="247.05" target-y="475.43"></path><path d="M 248.54 460.35 C 248.54 460.35 252.60 472.63 251.58 479.45 C 250.57 486.26 251.99 496.07 260.61 499.06 C 269.23 502.05 277.45 497.00 280.39 488.43 C 283.33 479.86 280.49 473.67 273.29 468.09 C 274.51 462.83 268.58 453.27 258.03 449.86 C 247.69 448.41 248.54 460.35 248.54 460.35 Z" fill="url(#SVGID_46_)" fill-rule="nonzero" group-id="1,4" node-id="714" stroke="none" target-height="53.639984" target-width="35.639984" target-x="247.69" target-y="448.41"></path><path d="M 232.91 444.55 C 232.91 444.55 226.32 449.20 226.46 455.79 C 226.60 462.38 231.89 461.15 231.89 461.15 C 231.89 461.15 233.49 470.91 243.89 471.25 C 254.29 471.58 255.76 461.18 255.76 461.18 C 255.76 461.18 260.98 461.84 261.10 455.84 C 261.22 449.84 256.66 441.79 252.13 439.50 C 247.59 437.20 236.45 439.97 232.91 444.55 Z" fill="url(#SVGID_47_)" fill-rule="nonzero" group-id="1,4" node-id="716" stroke="none" target-height="34.379974" target-width="34.899994" target-x="226.32" target-y="437.2"></path><path d="M 239.61 442.49 C 239.61 442.49 237.53 448.48 232.30 449.51 C 227.07 450.54 226.61 453.21 226.61 455.71 C 226.61 457.55 227.23 459.30 227.67 460.14 C 224.85 458.59 221.00 454.89 223.45 444.69 C 225.82 434.84 233.11 430.05 242.93 430.20 C 251.15 428.03 263.32 439.04 262.26 453.36 C 260.51 451.04 258.89 450.50 257.67 450.08 C 256.45 449.67 253.92 447.14 253.61 444.61 C 251.48 445.07 244.02 446.10 239.61 442.49 Z" fill="url(#SVGID_48_)" fill-rule="nonzero" group-id="1,4" node-id="718" stroke="none" target-height="32.110016" target-width="42.320007" target-x="221" target-y="428.03"></path><path d="M 217.12 574.72 L 271.41 574.72 C 273.87 574.72 276.07 572.86 276.92 570.05 L 287.86 534.05 C 289.28 529.38 286.44 524.41 282.35 524.41 L 206.67 524.41 C 202.62 524.41 199.78 529.29 201.13 533.95 L 211.58 569.95 C 212.41 572.81 214.63 574.72 217.12 574.72 Z" fill="url(#SVGID_49_)" fill-rule="nonzero" group-id="1,4" node-id="720" stroke="none" target-height="50.309998" target-width="89.5" target-x="199.78" target-y="524.41"></path><g node-id="751"><path d="M 214.96 591.27 C 214.96 591.27 214.12 589.42 213.48 589.22 C 212.84 589.02 203.55 588.65 200.16 587.77 C 196.77 586.89 187.01 585.50 182.82 589.46 C 179.18 592.91 177.97 600.97 183.52 605.61 C 185.60 607.42 187.65 607.95 195.36 607.59 C 203.07 607.23 214.25 607.31 216.70 603.74 C 216.62 597.84 214.96 591.27 214.96 591.27 Z" fill="#ffffff" fill-rule="nonzero" group-id="1,4,9" node-id="724" stroke="none" target-height="22.450012" target-width="38.729996" target-x="177.97" target-y="585.5"></path><path d="M 223.57 589.23 C 223.57 589.23 214.61 591.24 211.40 590.95 C 208.20 590.65 210.88 603.57 210.88 603.57 C 210.88 603.57 219.44 604.16 227.01 601.97 C 229.57 592.07 223.57 589.23 223.57 589.23 Z" fill="url(#SVGID_50_)" fill-rule="nonzero" group-id="1,4,9" node-id="726" stroke="none" target-height="14.929993" target-width="21.37001" target-x="208.2" target-y="589.23"></path><path d="M 220.36 588.76 L 225.02 603.25 C 225.02 603.25 325.15 590.06 310.84 557.57 C 298.88 530.40 220.36 588.76 220.36 588.76 Z" fill="url(#SVGID_51_)" fill-rule="nonzero" group-id="1,4,9" node-id="728" stroke="none" target-height="72.849976" target-width="104.78999" target-x="220.36" target-y="530.4"></path><path d="M 213.79 589.88 C 213.79 589.88 217.46 591.32 217.92 596.43 C 218.39 601.55 216.87 604.98 209.07 605.93 C 201.27 606.88 199.29 606.52 194.40 606.64 C 189.51 606.76 182.41 607.23 181.36 597.93 C 180.31 588.63 189.82 586.26 199.68 588.63 C 202.79 589.23 213.79 589.88 213.79 589.88 Z" fill="url(#SVGID_52_)" fill-rule="nonzero" group-id="1,4,9" node-id="730" stroke="none" target-height="20.96997" target-width="38.08" target-x="180.31" target-y="586.26"></path></g><g node-id="752"><path d="M 277.44 591.27 C 277.44 591.27 278.28 589.42 278.92 589.22 C 279.57 589.02 288.85 588.65 292.24 587.77 C 295.63 586.89 304.73 585.43 309.33 589.35 C 313.59 592.99 313.87 601.04 309.02 605.48 C 306.94 607.29 304.75 607.95 297.04 607.59 C 289.33 607.23 278.15 607.31 275.70 603.74 C 275.78 597.84 277.44 591.27 277.44 591.27 Z" fill="#ffffff" fill-rule="nonzero" group-id="1,4,10" node-id="735" stroke="none" target-height="22.52002" target-width="38.169983" target-x="275.7" target-y="585.43"></path><path d="M 268.82 589.23 C 268.82 589.23 277.78 591.24 280.99 590.95 C 284.19 590.65 281.51 603.57 281.51 603.57 C 281.51 603.57 272.95 604.16 265.38 601.97 C 262.83 592.07 268.82 589.23 268.82 589.23 Z" fill="url(#SVGID_53_)" fill-rule="nonzero" group-id="1,4,10" node-id="737" stroke="none" target-height="14.929993" target-width="21.360016" target-x="262.83" target-y="589.23"></path><path d="M 272.03 588.76 L 267.37 603.25 C 267.37 603.25 167.24 590.06 181.55 557.57 C 193.52 530.40 272.03 588.76 272.03 588.76 Z" fill="url(#SVGID_54_)" fill-rule="nonzero" group-id="1,4,10" node-id="739" stroke="none" target-height="72.849976" target-width="104.78999" target-x="167.24" target-y="530.4"></path><path d="M 278.60 589.88 C 278.60 589.88 274.93 591.32 274.47 596.43 C 274.00 601.55 275.52 604.98 283.32 605.93 C 291.12 606.88 293.10 606.52 297.99 606.64 C 302.88 606.76 309.98 607.23 311.03 597.93 C 312.08 588.63 302.57 586.26 292.71 588.63 C 289.61 589.23 278.60 589.88 278.60 589.88 Z" fill="url(#SVGID_55_)" fill-rule="nonzero" group-id="1,4,10" node-id="741" stroke="none" target-height="20.96997" target-width="38.079987" target-x="274" target-y="586.26"></path></g></g></g></svg>