<?xml version="1.0" standalone="no"?><!DOCTYPE svg PUBLIC "-//W3C//DTD SVG 1.1//EN" "http://www.w3.org/Graphics/SVG/1.1/DTD/svg11.dtd"><svg height="800" node-id="1" sillyvg="true" template-height="800" template-width="800" version="1.1" viewBox="0 0 800 800" width="800" xmlns="http://www.w3.org/2000/svg" xmlns:xlink="http://www.w3.org/1999/xlink"><defs node-id="157"><linearGradient gradientUnits="userSpaceOnUse" id="SVGID_1_" node-id="14" spreadMethod="pad" x1="400.7238" x2="400.7238" y1="157.5658" y2="713.0574"><stop offset="0.00000009590021" stop-color="#f4f2fb"></stop><stop offset="1" stop-color="#e1eef5"></stop></linearGradient><linearGradient gradientUnits="userSpaceOnUse" id="SVGID_2_" node-id="18" spreadMethod="pad" x1="520.4979" x2="520.4979" y1="607.1945" y2="396.9368"><stop offset="0.016" stop-color="#b0b9e1"></stop><stop offset="1" stop-color="#eaf0f8"></stop></linearGradient><linearGradient gradientUnits="userSpaceOnUse" id="SVGID_3_" node-id="23" spreadMethod="pad" x1="115.8056" x2="115.8056" y1="537.952" y2="400.7775"><stop offset="0.2267" stop-color="#b7ace0"></stop><stop offset="0.7893" stop-color="#e8e7fa"></stop></linearGradient><linearGradient gradientUnits="userSpaceOnUse" id="SVGID_4_" node-id="28" spreadMethod="pad" x1="115.8075" x2="115.8075" y1="416.0092" y2="567.1425"><stop offset="0" stop-color="#ecf1fb"></stop><stop offset="0.818" stop-color="#afb0e7"></stop></linearGradient><linearGradient gradientUnits="userSpaceOnUse" id="SVGID_5_" node-id="33" spreadMethod="pad" x1="616.9344" x2="616.9344" y1="446.4301" y2="358.1056"><stop offset="0.2267" stop-color="#ccd4f4"></stop><stop offset="0.7893" stop-color="#ecf1fb"></stop></linearGradient><linearGradient gradientUnits="userSpaceOnUse" id="SVGID_6_" node-id="38" spreadMethod="pad" x1="616.9357" x2="616.9357" y1="367.9131" y2="465.2254"><stop offset="0" stop-color="#ecf1fb"></stop><stop offset="1" stop-color="#a6a8e2"></stop></linearGradient><linearGradient gradientUnits="userSpaceOnUse" id="SVGID_7_" node-id="42" spreadMethod="pad" x1="462.8526" x2="428.0983" y1="83.8235" y2="144.0197"><stop offset="0" stop-color="#ffdb80"></stop><stop offset="1" stop-color="#ffbb24"></stop></linearGradient><linearGradient gradientUnits="userSpaceOnUse" id="SVGID_8_" node-id="46" spreadMethod="pad" x1="420.5154" x2="420.5154" y1="114.2897" y2="171.7437"><stop offset="0" stop-color="#f9fafe"></stop><stop offset="1" stop-color="#e5edf7"></stop></linearGradient><linearGradient gradientUnits="userSpaceOnUse" id="SVGID_9_" node-id="51" spreadMethod="pad" x1="687.5367" x2="687.5367" y1="535.6702" y2="507.842"><stop offset="0.2267" stop-color="#afb0e7"></stop><stop offset="1" stop-color="#ecf1fb"></stop></linearGradient><linearGradient gradientUnits="userSpaceOnUse" id="SVGID_10_" node-id="55" spreadMethod="pad" x1="687.5859" x2="687.5859" y1="511.3557" y2="556.1516"><stop offset="0.00000009590021" stop-color="#dde1f6"></stop><stop offset="0.818" stop-color="#a6a8e2"></stop></linearGradient><linearGradient gradientUnits="userSpaceOnUse" id="SVGID_11_" node-id="61" spreadMethod="pad" x1="276.0889" x2="505.7404" y1="227.9833" y2="625.7513"><stop offset="0.1157" stop-color="#ced3f4"></stop><stop offset="0.8472" stop-color="#c6d5f4"></stop></linearGradient><linearGradient gradientUnits="userSpaceOnUse" id="SVGID_12_" node-id="65" spreadMethod="pad" x1="391.3305" x2="391.3305" y1="580.9162" y2="258.264"><stop offset="0.1022" stop-color="#ebf2fa"></stop><stop offset="0.4541" stop-color="#ebf2fa"></stop></linearGradient><linearGradient gradientUnits="userSpaceOnUse" id="SVGID_13_" node-id="69" spreadMethod="pad" x1="341.2234" x2="341.2234" y1="577.9283" y2="258.2887"><stop offset="0" stop-color="#ebf2fa"></stop><stop offset="0.5247" stop-color="#fdfeff"></stop><stop offset="1" stop-color="#e9effb"></stop></linearGradient><linearGradient gradientUnits="userSpaceOnUse" id="SVGID_14_" node-id="74" spreadMethod="pad" x1="412.2732" x2="451.323" y1="502.2188" y2="541.2687"><stop offset="0" stop-color="#faeff8"></stop><stop offset="1" stop-color="#d8d4f4"></stop></linearGradient><linearGradient gradientUnits="userSpaceOnUse" id="SVGID_15_" node-id="85" spreadMethod="pad" x1="390.1645" x2="390.1645" y1="279.4689" y2="202.9297"><stop offset="0.15" stop-color="#acc5ea"></stop><stop offset="1" stop-color="#e9e3f8"></stop></linearGradient><linearGradient gradientUnits="userSpaceOnUse" id="SVGID_16_" node-id="90" spreadMethod="pad" x1="451.3235" x2="615.9883" y1="366.1785" y2="366.1785"><stop offset="0.1157" stop-color="#ced3f4"></stop><stop offset="0.8472" stop-color="#c6d5f4"></stop></linearGradient><linearGradient gradientTransform="matrix(0.8876 -0.4606 0.4606 0.8876 2375.189 -2847.2683)" gradientUnits="userSpaceOnUse" id="SVGID_17_" node-id="95" spreadMethod="pad" x1="-3108.0625" x2="-3118.8909" y1="2289.6853" y2="2310.5508"><stop offset="0" stop-color="#ffdb80"></stop><stop offset="1" stop-color="#ffbb24"></stop></linearGradient><linearGradient gradientTransform="matrix(0.9533 0.3019 -0.3019 0.9533 -1368.6318 341.7233)" gradientUnits="userSpaceOnUse" id="SVGID_18_" node-id="100" spreadMethod="pad" x1="1954.4784" x2="1954.4784" y1="-384.0754" y2="-404.892"><stop offset="0" stop-color="#f4b9a4"></stop><stop offset="0.652" stop-color="#fad1bb"></stop></linearGradient><linearGradient gradientTransform="matrix(0.9533 0.3019 -0.3019 0.9533 -1368.6318 341.7233)" gradientUnits="userSpaceOnUse" id="SVGID_19_" node-id="104" spreadMethod="pad" x1="1939.8976" x2="1939.8976" y1="-364.7295" y2="-390.5919"><stop offset="0" stop-color="#c3d5fd"></stop><stop offset="1" stop-color="#1a90fc"></stop></linearGradient><linearGradient gradientTransform="matrix(0.9533 0.3019 -0.3019 0.9533 -1368.6318 341.7233)" gradientUnits="userSpaceOnUse" id="SVGID_20_" node-id="108" spreadMethod="pad" x1="1944.3147" x2="1977.9719" y1="-400.492" y2="-400.492"><stop offset="0" stop-color="#4f5c7c"></stop><stop offset="1" stop-color="#274168"></stop></linearGradient><linearGradient gradientTransform="matrix(0.9533 0.3019 -0.3019 0.9533 -1368.6318 341.7233)" gradientUnits="userSpaceOnUse" id="SVGID_21_" node-id="112" spreadMethod="pad" x1="1941.5895" x2="1974.6749" y1="-404.3925" y2="-404.3925"><stop offset="0" stop-color="#18264b"></stop><stop offset="0.652" stop-color="#2d3c65"></stop></linearGradient><linearGradient gradientTransform="matrix(0.9533 0.3019 -0.3019 0.9533 -1368.6318 341.7233)" gradientUnits="userSpaceOnUse" id="SVGID_22_" node-id="116" spreadMethod="pad" x1="1961.0824" x2="1961.0824" y1="-384.7234" y2="-405.6698"><stop offset="0" stop-color="#f4b9a4"></stop><stop offset="0.652" stop-color="#fad1bb"></stop></linearGradient><linearGradient gradientTransform="matrix(0.9146 0.4044 -0.4044 0.9146 -2065.3843 680.9991)" gradientUnits="userSpaceOnUse" id="SVGID_23_" node-id="120" spreadMethod="pad" x1="2348.745" x2="2348.745" y1="-1227.0658" y2="-1255.708"><stop offset="0" stop-color="#f4b9a4"></stop><stop offset="0.652" stop-color="#fad1bb"></stop></linearGradient><linearGradient gradientTransform="matrix(0.7377 0.6751 -0.6751 0.7377 -4007.2383 1111.1842)" gradientUnits="userSpaceOnUse" id="SVGID_24_" node-id="124" spreadMethod="pad" x1="2993.722" x2="2955.1023" y1="-3567.7727" y2="-3567.7727"><stop offset="0" stop-color="#4f5c7c"></stop><stop offset="1" stop-color="#274168"></stop></linearGradient><linearGradient gradientTransform="matrix(0.9533 0.3019 -0.3019 0.9533 -1368.6318 341.7233)" gradientUnits="userSpaceOnUse" id="SVGID_25_" node-id="128" spreadMethod="pad" x1="1927.4017" x2="2004.4974" y1="-348.9492" y2="-348.9492"><stop offset="0" stop-color="#18264b"></stop><stop offset="0.652" stop-color="#2d3c65"></stop></linearGradient><linearGradient gradientTransform="matrix(0.9533 0.3019 -0.3019 0.9533 -1368.6318 341.7233)" gradientUnits="userSpaceOnUse" id="SVGID_26_" node-id="132" spreadMethod="pad" x1="2029.6141" x2="1896.3435" y1="-366.4688" y2="-366.4688"><stop offset="0" stop-color="#445677"></stop><stop offset="1" stop-color="#293861"></stop></linearGradient><linearGradient gradientTransform="matrix(1.1235 0.2935 -0.2528 0.9675 -256.5075 366.1033)" gradientUnits="userSpaceOnUse" id="SVGID_27_" node-id="136" spreadMethod="pad" x1="725.2766" x2="725.2766" y1="23.8858" y2="-85.0715"><stop offset="0" stop-color="#c3d5fd"></stop><stop offset="1" stop-color="#1a90fc"></stop></linearGradient><linearGradient gradientTransform="matrix(0.9206 0.3905 -0.3905 0.9206 -1797.3021 370.0301)" gradientUnits="userSpaceOnUse" id="SVGID_28_" node-id="141" spreadMethod="pad" x1="2269.1233" x2="2291.4734" y1="-773.5544" y2="-773.5544"><stop offset="0" stop-color="#f4b9a4"></stop><stop offset="0.652" stop-color="#fad1bb"></stop></linearGradient><linearGradient gradientTransform="matrix(0.9533 0.3019 -0.3019 0.9533 -1368.6318 341.7233)" gradientUnits="userSpaceOnUse" id="SVGID_29_" node-id="145" spreadMethod="pad" x1="1913.5822" x2="1913.5822" y1="-352.6794" y2="-421.3697"><stop offset="0" stop-color="#c3d5fd"></stop><stop offset="1" stop-color="#1a90fc"></stop></linearGradient></defs><g node-id="442"><g node-id="443"><path d="M 483.98 198.92 C 445.61 229.21 363.24 232.73 302.81 196.70 C 242.38 160.67 130.81 165.32 100.59 231.57 C 70.37 297.82 137.78 362.90 113.37 410.55 C 88.96 458.20 7.61 525.60 63.40 606.95 C 119.19 688.30 190.00 667.57 232.61 659.40 C 316.78 643.27 422.40 775.07 541.23 675.53 C 609.70 618.18 711.67 717.62 751.40 594.17 C 784.18 492.31 665.73 454.67 701.43 386.14 C 739.39 313.26 732.10 226.90 690.97 185.08 C 652.67 146.12 550.23 146.62 483.98 198.92 Z" fill="url(#SVGID_1_)" fill-rule="nonzero" group-id="1,2" node-id="341" stroke="none" target-height="628.95" target-width="776.57" target-x="7.61" target-y="146.12"></path><path d="M 377.38 396.94 L 690.56 396.94 L 608.40 571.42 L 541.26 607.19 L 350.44 607.19 Z" fill="url(#SVGID_2_)" fill-rule="nonzero" group-id="1,2" node-id="343" stroke="none" target-height="210.25" target-width="340.12" target-x="350.44" target-y="396.94"></path><g node-id="446"><path d="M 116.59 401.02 C 116.59 401.02 116.37 400.45 116.07 401.06 C 113.37 406.55 88.92 466.02 86.98 511.92 C 86.98 511.92 82.90 538.29 117.09 537.94 C 145.63 537.65 144.87 513.34 144.77 505.15 C 144.38 471.93 116.59 401.02 116.59 401.02 Z" fill="url(#SVGID_3_)" fill-rule="nonzero" group-id="1,2,5" node-id="347" stroke="none" target-height="137.83997" target-width="62.730003" target-x="82.9" target-y="400.45"></path><g node-id="449"><path d="M 115.81 567.14 C 115.26 567.14 114.81 566.69 114.81 566.14 L 114.81 417.01 C 114.81 416.46 115.26 416.01 115.81 416.01 C 116.36 416.01 116.81 416.46 116.81 417.01 L 116.81 566.14 C 116.81 566.69 116.36 567.14 115.81 567.14 Z" fill="url(#SVGID_4_)" fill-rule="nonzero" group-id="1,2,5,8" node-id="351" stroke="none" target-height="151.13" target-width="2" target-x="114.81" target-y="416.01"></path></g></g><g node-id="447"><path d="M 617.44 358.26 C 617.44 358.26 617.30 357.89 617.11 358.29 C 615.37 361.82 599.63 400.12 598.38 429.67 C 598.38 429.67 595.75 446.65 617.77 446.43 C 636.15 446.25 635.66 430.59 635.59 425.32 C 635.34 403.92 617.44 358.26 617.44 358.26 Z" fill="url(#SVGID_5_)" fill-rule="nonzero" group-id="1,2,6" node-id="357" stroke="none" target-height="88.75998" target-width="40.400024" target-x="595.75" target-y="357.89"></path><g node-id="450"><path d="M 616.94 465.23 C 616.58 465.23 616.30 464.94 616.30 464.59 L 616.30 368.57 C 616.30 368.21 616.59 367.93 616.94 367.93 C 617.29 367.93 617.58 368.22 617.58 368.57 L 617.58 464.59 C 617.58 464.94 617.29 465.23 616.94 465.23 Z" fill="url(#SVGID_6_)" fill-rule="nonzero" group-id="1,2,6,9" node-id="361" stroke="none" target-height="97.30002" target-width="1.2800293" target-x="616.3" target-y="367.93"></path></g></g><path d="M 480.23 113.92 C 480.23 133.11 464.67 148.67 445.48 148.67 C 426.29 148.67 410.73 133.11 410.73 113.92 C 410.73 94.73 426.29 79.17 445.48 79.17 C 464.67 79.17 480.23 94.73 480.23 113.92 Z" fill="url(#SVGID_7_)" fill-rule="nonzero" group-id="1,2" node-id="365" stroke="none" target-height="69.5" target-width="69.5" target-x="410.73" target-y="79.17"></path><path d="M 465.25 132.87 L 430.68 132.87 C 428.45 122.26 419.03 114.29 407.75 114.29 C 396.47 114.29 387.06 122.26 384.82 132.87 L 375.77 132.87 C 365.04 132.87 356.33 141.57 356.33 152.31 L 356.33 152.31 C 356.33 163.04 365.03 171.75 375.77 171.75 L 465.24 171.75 C 475.97 171.75 484.68 163.05 484.68 152.31 L 484.68 152.31 C 484.69 141.57 475.99 132.87 465.25 132.87 Z" fill="url(#SVGID_8_)" fill-rule="nonzero" group-id="1,2" node-id="367" stroke="none" target-height="57.46" target-width="128.36002" target-x="356.33" target-y="114.29"></path><path d="M 701.45 521.76 C 701.45 529.44 695.22 535.67 687.54 535.67 C 679.86 535.67 673.63 529.44 673.63 521.76 C 673.63 514.08 679.86 507.85 687.54 507.85 C 695.22 507.85 701.45 514.08 701.45 521.76 Z" fill="url(#SVGID_9_)" fill-rule="nonzero" group-id="1,2,7" node-id="371" stroke="none" target-height="27.819977" target-width="27.820007" target-x="673.63" target-y="507.85"></path><path d="M 687.59 556.15 C 687.35 556.15 687.16 555.96 687.16 555.72 L 687.16 511.78 C 687.16 511.54 687.35 511.35 687.59 511.35 C 687.83 511.35 688.02 511.54 688.02 511.78 L 688.02 555.72 C 688.01 555.96 687.82 556.15 687.59 556.15 Z" fill="url(#SVGID_10_)" fill-rule="nonzero" group-id="1,2,7" node-id="373" stroke="none" target-height="44.80002" target-width="0.8600464" target-x="687.16" target-y="511.35"></path></g><g node-id="444"><path d="M 512.58 621.02 L 280.25 621.02 C 260.12 621.02 243.81 604.70 243.81 584.58 L 243.81 264.33 C 243.81 244.20 260.13 227.89 280.25 227.89 L 512.58 227.89 C 532.71 227.89 549.02 244.21 549.02 264.33 L 549.02 584.58 C 549.03 604.70 532.71 621.02 512.58 621.02 Z" fill="#afb0e7" fill-rule="nonzero" group-id="1,3" node-id="379" stroke="none" target-height="393.13" target-width="305.22003" target-x="243.81" target-y="227.89"></path><path d="M 505.41 620.81 L 276.41 620.81 C 258.11 620.81 243.28 605.98 243.28 587.68 L 243.28 266.05 C 243.28 247.75 258.11 232.92 276.41 232.92 L 505.41 232.92 C 523.71 232.92 538.54 247.75 538.54 266.05 L 538.54 587.68 C 538.54 605.98 523.71 620.81 505.41 620.81 Z" fill="url(#SVGID_11_)" fill-rule="nonzero" group-id="1,3" node-id="381" stroke="none" target-height="387.89" target-width="295.25998" target-x="243.28" target-y="232.92"></path><path d="M 500.71 580.92 L 281.95 580.92 C 279.37 580.92 277.28 578.83 277.28 576.25 L 277.28 262.93 C 277.28 260.35 279.37 258.26 281.95 258.26 L 500.72 258.26 C 503.30 258.26 505.39 260.35 505.39 262.93 L 505.39 576.25 C 505.38 578.83 503.29 580.92 500.71 580.92 Z" fill="url(#SVGID_12_)" fill-rule="nonzero" group-id="1,3" node-id="383" stroke="none" target-height="322.65997" target-width="228.11002" target-x="277.28" target-y="258.26"></path><path d="M 381.31 577.93 C 360.88 576.55 248.51 568.06 178.93 511.95 C 175.49 509.17 177.10 503.46 181.51 503.06 C 289.50 493.32 276.35 300.82 277.11 263.91 C 277.17 260.78 279.17 258.29 282.30 258.29 L 500.35 258.29 C 503.13 258.29 505.38 260.54 505.38 263.32 L 493.96 470.03 C 493.54 471.17 492.74 473.38 491.95 474.30 L 409.20 573.90 C 408.17 575.11 382.89 578.03 381.31 577.93 Z" fill="url(#SVGID_13_)" fill-rule="nonzero" group-id="1,3" node-id="385" stroke="none" target-height="319.74002" target-width="329.89" target-x="175.49" target-y="258.29"></path><path d="M 411.62 505.10 C 424.21 505.89 461.72 506.18 493.96 470.03 C 486.32 508.06 437.26 576.86 373.51 577.33 C 410.14 558.47 408.74 523.55 407.58 507.89 C 407.45 506.06 409.79 504.99 411.62 505.10 Z" fill="url(#SVGID_14_)" fill-rule="nonzero" group-id="1,3" node-id="387" stroke="none" target-height="107.30002" target-width="120.44998" target-x="373.51" target-y="470.03"></path><path d="M 311.72 323.64 C 311.72 323.64 313.92 333.67 311.72 344.22 C 329.80 344.22 329.63 344.22 329.63 344.22 C 329.63 344.22 332.73 334.88 329.55 323.25 C 317.09 323.15 311.72 323.64 311.72 323.64 Z" fill="#dcdef5" fill-rule="nonzero" group-id="1,3" node-id="389" stroke="none" target-height="21.070007" target-width="21.01001" target-x="311.72" target-y="323.15"></path><path d="M 482.57 344.13 L 350.85 344.13 C 350.85 344.13 351.90 335.66 350.85 322.86 C 365.15 322.86 482.57 322.86 482.57 322.86 L 482.57 344.13 Z" fill="#dcdef5" fill-rule="nonzero" group-id="1,3" node-id="391" stroke="none" target-height="21.27002" target-width="131.72" target-x="350.85" target-y="322.86"></path><path d="M 309.61 385.42 C 309.61 385.42 311.81 395.45 309.61 406.00 C 327.69 406.00 327.52 406.00 327.52 406.00 C 327.52 406.00 330.62 396.66 327.44 385.03 C 314.97 384.93 309.61 385.42 309.61 385.42 Z" fill="#dcdef5" fill-rule="nonzero" group-id="1,3" node-id="393" stroke="none" target-height="21.070007" target-width="21.01001" target-x="309.61" target-y="384.93"></path><path d="M 480.45 405.91 L 348.74 405.91 C 348.74 405.91 349.79 397.44 348.74 384.64 C 363.04 384.64 480.46 384.64 480.46 384.64 L 480.46 405.91 Z" fill="#dcdef5" fill-rule="nonzero" group-id="1,3" node-id="395" stroke="none" target-height="21.269989" target-width="131.72" target-x="348.74" target-y="384.64"></path><path d="M 305.18 451.27 C 305.18 451.27 304.40 462.18 297.39 471.69 C 306.90 471.69 317.81 472.07 317.81 472.07 C 317.81 472.07 325.76 464.21 324.20 451.10 C 311.73 451.01 305.18 451.27 305.18 451.27 Z" fill="#dcdef5" fill-rule="nonzero" group-id="1,3" node-id="397" stroke="none" target-height="21.059998" target-width="28.369995" target-x="297.39" target-y="451.01"></path><path d="M 479.39 471.98 L 341.33 471.98 C 341.33 471.98 345.56 463.51 344.51 450.71 C 358.81 450.71 479.40 450.71 479.40 450.71 L 479.40 471.98 Z" fill="#dcdef5" fill-rule="nonzero" group-id="1,3" node-id="399" stroke="none" target-height="21.27002" target-width="138.07" target-x="341.33" target-y="450.71"></path><path d="M 454.39 220.60 L 434.36 220.60 C 431.16 220.60 428.56 218.04 428.56 214.87 L 428.56 214.87 C 428.56 209.38 424.05 204.92 418.49 204.92 L 365.84 204.92 C 360.28 204.92 355.77 209.37 355.77 214.87 L 355.77 214.87 C 355.77 218.03 353.17 220.60 349.97 220.60 L 329.94 220.60 C 322.70 220.60 316.82 226.40 316.82 233.55 L 316.82 269.39 C 316.82 276.54 322.69 282.34 329.94 282.34 L 454.40 282.34 C 461.64 282.34 467.52 276.54 467.52 269.38 L 467.52 233.54 C 467.51 226.40 461.64 220.60 454.39 220.60 Z" fill="#afb0e7" fill-rule="nonzero" group-id="1,3" node-id="401" stroke="none" target-height="77.42" target-width="150.69998" target-x="316.82" target-y="204.92"></path><path d="M 450.93 218.43 L 431.37 218.43 C 428.24 218.43 425.71 215.89 425.71 212.77 L 425.71 212.77 C 425.71 207.34 421.31 202.94 415.88 202.94 L 364.47 202.94 C 359.04 202.94 354.64 207.34 354.64 212.77 L 354.64 212.77 C 354.64 215.90 352.10 218.43 348.98 218.43 L 329.40 218.43 C 322.33 218.43 316.59 224.16 316.59 231.24 L 316.59 266.67 C 316.59 273.74 322.32 279.48 329.40 279.48 L 450.93 279.48 C 458.00 279.48 463.74 273.75 463.74 266.67 L 463.74 231.24 C 463.74 224.16 458.00 218.43 450.93 218.43 Z" fill="url(#SVGID_15_)" fill-rule="nonzero" group-id="1,3" node-id="403" stroke="none" target-height="76.54001" target-width="147.15" target-x="316.59" target-y="202.94"></path><path d="M 601.08 280.10 L 623.50 303.12 C 626.72 306.48 626.70 311.79 623.46 315.13 L 495.03 447.30 C 493.48 448.90 491.37 449.83 489.15 449.92 L 453.02 451.39 C 451.80 451.44 450.81 450.42 450.89 449.21 L 452.80 417.50 C 452.93 415.37 453.84 413.37 455.35 411.87 L 587.33 281.43 C 590.76 278.03 596.79 276.19 601.08 280.10 Z" fill="#afb0e7" fill-rule="nonzero" group-id="1,3" node-id="405" stroke="none" target-height="175.25" target-width="175.90997" target-x="450.81" target-y="276.19"></path><path d="M 594.77 285.69 L 613.72 305.47 C 616.76 308.64 616.74 313.65 613.68 316.80 L 488.63 445.59 C 487.17 447.10 485.18 447.98 483.08 448.06 L 453.34 449.18 C 452.19 449.22 451.26 448.27 451.33 447.12 L 453.13 417.22 C 453.25 415.22 454.11 413.33 455.53 411.91 L 583.14 285.54 C 586.38 282.33 591.62 282.40 594.77 285.69 Z" fill="url(#SVGID_16_)" fill-rule="nonzero" group-id="1,3" node-id="407" stroke="none" target-height="166.89001" target-width="165.5" target-x="451.26" target-y="282.33"></path></g><g node-id="445"><path d="M 657.83 616.69 C 657.83 616.69 660.81 623.02 671.01 621.49 C 675.35 625.75 681.19 629.89 685.39 632.07 C 689.59 634.25 688.80 639.11 687.81 640.19 C 681.98 638.06 664.57 634.55 653.75 627.56 C 656.44 619.80 657.83 616.69 657.83 616.69 Z" fill="url(#SVGID_17_)" fill-rule="nonzero" group-id="1,4" node-id="412" stroke="none" target-height="23.5" target-width="35.840027" target-x="653.75" target-y="616.69"></path><path d="M 652.31 630.13 L 653.61 626.84 C 653.61 626.84 666.41 633.32 689.50 637.82 C 689.33 639.65 689.36 640.58 689.36 640.58 C 689.36 640.58 671.62 638.02 652.31 630.13 Z" fill="#d4e4fe" fill-rule="nonzero" group-id="1,4" node-id="414" stroke="none" target-height="13.73999" target-width="37.190002" target-x="652.31" target-y="626.84"></path><path d="M 603.99 556.25 C 603.99 556.25 609.82 550.08 611.77 548.93 C 613.72 547.78 620.25 545.53 622.07 547.87 C 623.89 550.21 624.36 554.00 623.38 555.13 C 622.40 556.26 607.17 564.57 607.17 564.57 L 602.87 559.77 L 603.99 556.25 Z" fill="url(#SVGID_18_)" fill-rule="nonzero" group-id="1,4" node-id="416" stroke="none" target-height="19.039978" target-width="21.48999" target-x="602.87" target-y="545.53"></path><path d="M 584.08 561.59 C 584.08 561.59 601.77 561.78 608.87 558.28 C 611.03 565.55 612.17 570.49 612.17 570.49 C 612.17 570.49 594.89 581.62 584.51 577.67 C 574.13 573.72 576.23 567.80 576.23 567.80 L 584.08 561.59 Z" fill="url(#SVGID_19_)" fill-rule="nonzero" group-id="1,4" node-id="418" stroke="none" target-height="23.339966" target-width="38.039978" target-x="574.13" target-y="558.28"></path><path d="M 639.49 536.14 L 641.15 536.09 L 641.80 544.96 L 605.55 568.85 L 601.43 560.93 L 602.01 559.12 Z" fill="url(#SVGID_20_)" fill-rule="nonzero" group-id="1,4" node-id="420" stroke="none" target-height="32.75995" target-width="40.369995" target-x="601.43" target-y="536.09"></path><path d="M 639.65 534.05 L 641.15 536.09 L 601.43 560.94 L 599.33 558.56 Z" fill="url(#SVGID_21_)" fill-rule="nonzero" group-id="1,4" node-id="422" stroke="none" target-height="26.890015" target-width="41.820007" target-x="599.33" target-y="534.05"></path><path d="M 614.83 562.73 C 613.82 561.38 611.17 556.51 612.48 555.34 C 613.79 554.17 617.27 559.36 617.27 559.36 C 617.27 559.36 615.10 554.28 616.83 553.82 C 618.56 553.37 619.44 555.95 620.01 557.25 C 620.93 559.35 620.75 561.93 621.76 560.69 C 622.77 559.45 621.91 559.42 621.56 558.06 C 621.21 556.70 619.44 551.70 620.65 550.85 C 621.86 550.00 623.39 552.78 624.30 556.21 C 625.21 559.64 627.42 553.32 627.52 551.79 C 627.62 550.26 627.91 548.80 628.79 548.79 C 629.68 548.78 630.49 550.94 629.01 556.09 C 627.53 561.23 621.28 567.98 618.99 567.61 C 616.69 567.24 614.83 562.73 614.83 562.73 Z" fill="url(#SVGID_22_)" fill-rule="nonzero" group-id="1,4" node-id="424" stroke="none" target-height="19.199951" target-width="19.320007" target-x="611.17" target-y="548.78"></path><path d="M 602.72 489.12 C 602.72 489.12 597.90 501.41 588.67 503.68 C 587.65 503.97 586.64 503.81 584.84 501.74 C 583.04 499.67 580.83 504.59 578.97 507.54 C 577.11 510.48 568.04 498.82 568.17 498.68 C 568.29 498.54 579.71 486.90 583.31 482.47 C 586.90 478.04 602.72 489.12 602.72 489.12 Z" fill="url(#SVGID_23_)" fill-rule="nonzero" group-id="1,4" node-id="426" stroke="none" target-height="32.440002" target-width="34.679993" target-x="568.04" target-y="478.04"></path><path d="M 603.19 476.42 C 603.19 476.42 600.24 468.64 594.30 472.14 C 587.75 466.56 581.80 471.30 580.97 477.60 C 580.75 478.90 579.46 480.09 578.11 481.25 C 576.77 482.41 570.89 488.30 578.51 496.47 C 581.03 499.01 585.11 495.88 585.56 492.69 C 586.02 489.49 589.17 487.00 589.58 490.51 C 589.98 494.02 588.90 493.91 589.32 494.23 C 589.74 494.55 591.64 493.12 592.40 490.50 C 593.16 487.88 594.34 486.87 595.67 490.57 C 596.99 494.28 607.05 503.41 615.05 494.68 C 623.07 485.97 615.90 476.05 603.19 476.42 Z" fill="url(#SVGID_24_)" fill-rule="nonzero" group-id="1,4" node-id="428" stroke="none" target-height="36.850006" target-width="52.179993" target-x="570.89" target-y="466.56"></path><path d="M 598.77 584.48 C 598.77 584.48 644.88 590.52 649.27 599.85 C 653.66 609.18 644.61 616.43 628.89 617.21 C 622.81 614.49 619.30 612.39 619.30 612.39 L 622.03 610.67 C 622.03 610.67 599.03 617.59 569.69 607.81 C 567.48 595.99 598.77 584.48 598.77 584.48 Z" fill="url(#SVGID_25_)" fill-rule="nonzero" group-id="1,4" node-id="430" stroke="none" target-height="33.110046" target-width="86.17999" target-x="567.48" target-y="584.48"></path><path d="M 547.99 570.78 C 547.99 570.78 583.74 579.91 603.27 568.53 C 623.50 556.75 630.41 551.17 637.52 554.09 C 648.58 558.63 671.56 622.02 671.56 622.02 L 656.49 621.43 C 656.49 621.43 634.46 592.86 630.73 580.68 C 623.46 590.00 597.80 611.37 583.32 611.20 C 536.56 610.67 547.99 570.78 547.99 570.78 Z" fill="url(#SVGID_26_)" fill-rule="nonzero" group-id="1,4" node-id="432" stroke="none" target-height="70.85004" target-width="135" target-x="536.56" target-y="551.17"></path><path d="M 568.76 493.78 C 568.76 493.78 579.60 504.50 582.52 505.89 C 581.36 508.99 580.17 511.14 580.17 511.14 C 580.17 511.14 583.35 525.57 582.02 542.26 C 580.74 558.21 590.98 566.17 590.98 566.17 C 590.98 566.17 562.93 585.35 550.49 601.62 C 531.47 545.58 541.04 509.96 562.11 499.94 C 564.47 494.63 568.76 493.78 568.76 493.78 Z" fill="url(#SVGID_27_)" fill-rule="nonzero" group-id="1,4" node-id="434" stroke="none" target-height="107.84" target-width="59.51001" target-x="531.47" target-y="493.78"></path><path d="M 613.63 607.41 C 615.70 604.85 619.37 605.26 622.74 608.41 C 626.11 611.56 633.97 611.48 639.05 613.93 C 644.13 616.38 650.01 619.43 647.60 624.52 C 645.19 629.61 638.77 629.86 629.66 625.39 C 620.56 620.92 617.01 618.01 614.75 616.40 C 612.49 614.79 610.05 611.84 613.63 607.41 Z" fill="#d4e4fe" fill-rule="nonzero" group-id="1,4" node-id="436" stroke="none" target-height="25.01001" target-width="39.960022" target-x="610.05" target-y="604.85"></path><path d="M 588.92 555.32 C 588.92 555.32 597.47 552.04 598.67 550.22 C 599.87 548.40 601.48 539.94 603.94 537.79 C 606.40 535.64 609.87 532.97 611.75 533.42 C 613.63 533.87 616.03 534.52 616.36 534.86 C 616.69 535.20 618.01 536.31 617.83 536.93 C 617.66 537.55 617.21 537.94 616.65 537.83 C 616.09 537.72 614.45 537.37 614.43 537.51 C 615.16 538.38 615.03 539.45 614.88 539.64 C 616.45 540.16 616.75 541.53 616.42 542.43 C 617.26 542.94 618.39 543.89 617.36 545.31 C 616.33 546.73 614.05 546.82 612.81 548.71 C 611.58 550.60 610.11 554.77 608.33 555.91 C 606.55 557.05 601.35 559.03 599.66 559.87 C 597.97 560.71 594.52 563.04 594.52 563.04 L 588.92 555.32 Z" fill="url(#SVGID_28_)" fill-rule="nonzero" group-id="1,4" node-id="438" stroke="none" target-height="30.070007" target-width="29.470032" target-x="588.92" target-y="532.97"></path><path d="M 562.52 511.80 C 568.86 511.86 579.22 518.15 572.93 539.60 C 569.72 550.57 567.56 557.12 567.56 557.12 C 567.56 557.12 582.56 555.96 595.30 551.98 C 600.03 557.01 601.88 559.53 601.88 559.53 C 601.88 559.53 567.29 587.67 554.62 580.71 C 544.03 574.89 545.24 546.30 546.74 535.43 C 548.26 524.56 549.34 511.68 562.52 511.80 Z" fill="url(#SVGID_29_)" fill-rule="nonzero" group-id="1,4" node-id="440" stroke="none" target-height="75.98999" target-width="57.849976" target-x="544.03" target-y="511.68"></path></g></g></svg>